<?xml version="1.0" standalone="no"?>
<!DOCTYPE svg PUBLIC "-//W3C//DTD SVG 20010904//EN"
 "http://www.w3.org/TR/2001/REC-SVG-20010904/DTD/svg10.dtd">
<svg version="1.0" xmlns="http://www.w3.org/2000/svg"
 width="256.000000pt" height="256.000000pt" viewBox="0 0 256.000000 256.000000"
 preserveAspectRatio="xMidYMid meet">
<metadata>
Created by potrace 1.11, written by Peter Selinger 2001-2013
</metadata>
<g transform="translate(0.000000,256.000000) scale(0.100000,-0.100000)"
fill="#000000" stroke="none">
<path d="M699 2212 l-567 -346 1 -158 c0 -87 3 -158 6 -158 3 0 23 -11 45 -24
l38 -23 -43 -29 -44 -30 -1 -158 -2 -157 44 -28 44 -27 -43 -31 -44 -30 0
-156 0 -156 261 -159 c144 -87 402 -245 574 -350 l313 -190 82 51 c45 28 293
179 552 337 259 158 480 293 491 300 21 13 22 20 20 173 0 97 -5 162 -11 164
-5 2 -26 13 -44 24 l-35 21 39 24 c21 12 42 29 46 36 3 7 6 80 6 161 l-1 148
-44 31 -45 31 39 23 c22 13 42 24 45 24 3 0 6 71 6 158 l0 157 -121 74 c-66
41 -233 142 -371 226 -137 83 -337 205 -444 270 -107 65 -201 119 -210 120 -9
2 -271 -153 -582 -343z m1008 -241 c225 -132 416 -246 426 -253 17 -13 15 -15
-20 -35 l-39 -22 -355 215 c-195 119 -374 227 -399 241 l-45 25 -393 -240
-394 -240 -34 20 c-19 11 -34 23 -34 26 1 12 855 511 867 507 7 -3 196 -112
420 -244z m-171 -318 c139 -82 253 -151 254 -154 0 -3 -20 -17 -43 -29 l-44
-23 -102 61 c-56 34 -104 62 -107 62 -3 0 -20 11 -38 25 -18 14 -36 25 -39 25
-4 0 -39 20 -78 44 l-72 44 -211 -128 -211 -128 -37 21 c-20 12 -34 24 -32 27
7 6 497 299 503 299 3 1 118 -65 257 -146z m-971 -363 c3 -4 -12 -18 -32 -30
-39 -23 -64 -21 -102 8 l-23 19 43 25 42 25 34 -19 c18 -11 35 -24 38 -28z
m1593 -5 c2 -1 -18 -15 -43 -29 l-45 -27 -46 27 -45 27 42 28 42 28 46 -26
c25 -14 47 -26 49 -28z m-1184 -241 l126 -75 0 -45 c0 -24 -3 -44 -6 -44 -4 0
-40 20 -81 45 -40 25 -76 45 -78 45 -3 0 -31 16 -62 36 -32 20 -69 43 -82 51
l-24 15 39 23 c22 13 40 24 41 24 1 1 58 -33 127 -75z m778 42 l38 -23 -161
-94 c-89 -52 -165 -95 -170 -97 -5 -2 -9 18 -9 45 l1 48 117 72 c64 39 124 72
132 72 8 0 32 -10 52 -23z m-947 -367 l290 -177 3 -41 c2 -23 0 -41 -3 -41 -4
0 -70 38 -148 84 -78 46 -160 94 -183 107 -160 93 -344 204 -344 209 0 11 75
48 85 42 6 -4 141 -86 300 -183z m1323 152 c23 -12 16 -17 -130 -103 -84 -50
-229 -136 -323 -192 -172 -102 -214 -126 -221 -126 -2 0 -4 19 -4 43 l0 42
308 187 c275 167 309 185 327 174 11 -7 31 -18 43 -25z"/>
</g>
</svg>
