<svg xmlns="http://www.w3.org/2000/svg" xmlns:xlink="http://www.w3.org/1999/xlink"><symbol id="arrow-lg" viewBox="0 0 24 24"><path d="M13.6 5.1v5.3S6.8 14.3 0 3c.2 12.2 13.6 12.1 13.6 12.1v5.3L24 12.7 13.6 5.1z"/></symbol><symbol id="arrow" viewBox="0 0 31.5 31.5"><path d="M21.2 5c-.4-.4-1.1-.4-1.6 0-.4.4-.4 1.1 0 1.6l8 8H1.1c-.6 0-1.1.5-1.1 1.1s.5 1.1 1.1 1.1h26.6l-8 8c-.4.4-.4 1.2 0 1.6.4.4 1.2.4 1.6 0l10-10c.4-.4.4-1.1 0-1.6L21.2 5z"/></symbol><symbol id="check" viewBox="0 0 24 24"><path d="M10.3 22.6c-.5 0-.9-.2-1.2-.5L.5 12.5c-.6-.7-.6-1.7.1-2.3.7-.6 1.7-.6 2.3.1l7.2 8L21 1.7c.5-.8 1.5-1 2.3-.5.8.5 1 1.5.5 2.3L11.7 21.8c-.3.4-.7.7-1.3.7 0 .1-.1.1-.1.1z"/></symbol><symbol id="clock" viewBox="0 0 24 24"><path d="M22.6 11.4c0-1.1-.2-2.2-.5-3.3 1.7-1.8 1.6-4.7-.2-6.6-.9-1-2.2-1.6-3.5-1.6-1.2 0-2.3.4-3.1 1.2l.1.1C14.3.8 13.2.6 12 .6c-1.2 0-2.3.2-3.4.6C7.7.4 6.6 0 5.4 0 4 .1 2.8.6 1.9 1.5.1 3.4 0 6.4 1.7 8.2c-.3 1-.5 2.1-.5 3.2 0 3.6 1.8 6.8 4.5 8.7-.2.1-.3.2-.5.3-.6.4-1 .7-1 1.7 0 .7.2 1.1.5 1.4.4.4.9.5 1.4.5.6 0 1.4-.1 2.2-.3 1.1-.2 2.4-.4 3.7-.4 1.3 0 2.6.2 3.7.4 1.5.3 2.7.5 3.4-.1.4-.3.5-.8.5-1.5 0-1-.4-1.3-1-1.7-.2-.1-.3-.2-.5-.4 2.7-1.8 4.5-5 4.5-8.6zM18.3.8c1.1 0 2.2.5 3 1.3 1.4 1.5 1.6 3.8.4 5.2-1.1-2.6-3.2-4.7-5.8-5.8.7-.5 1.5-.8 2.4-.7zM2.4 2.1C3.2 1.3 4.2.9 5.3.9c.9 0 1.7.3 2.4.8-2.6 1-4.6 3.1-5.7 5.7-1.1-1.6-1-3.9.4-5.3zm15.8 19c.5.3.7.4.7 1 0 .4-.1.7-.3.9-.4.3-1.5.1-2.8-.1-1.1-.2-2.4-.4-3.8-.4s-2.7.2-3.8.4c-1.3.2-2.4.4-2.9.1-.2-.1-.3-.4-.3-.8 0-.6.2-.7.7-1.1.2-.1.5-.3.7-.5 1.6 1 3.5 1.5 5.5 1.5s3.9-.6 5.5-1.5c.3.2.6.4.8.5zm-6.3.2c-5.5 0-9.9-4.4-9.9-9.9C2 6 6.4 1.5 11.9 1.5s9.9 4.4 9.9 9.9-4.4 9.9-9.9 9.9z"/><path d="M11.9 3.1c-4.6 0-8.4 3.8-8.4 8.4s3.8 8.4 8.4 8.4 8.4-3.8 8.4-8.4-3.8-8.4-8.4-8.4zm0 16c-4.2 0-7.6-3.4-7.6-7.6 0-4.2 3.4-7.6 7.6-7.6 4.2 0 7.6 3.4 7.6 7.6 0 4.1-3.4 7.6-7.6 7.6z"/><path d="M12.3 6.1h-.8v5.7H15v-.7h-2.7zM11.5 17.5h.8v1.1h-.8zM11.5 4.2h.8v1.1h-.8zM4.7 11.1h1.1v.8H4.7zM18 11.1h1.1v.8H18z"/></symbol><symbol id="email" viewBox="0 0 24 24"><path d="M24 5.4c-.1-.5-.6-.9-1.1-.9H1.1C.5 4.5 0 5 0 5.6v12.8c0 .6.5 1.1 1.1 1.1h21.8c.6 0 1.1-.5 1.1-1.1v-13zM9.2 12.3l-8.5 6v-12c1.4.8 5.2 3.6 8.5 6zm.6.5c.7.5 1.3 1 1.9 1.4l.2.2.2-.2c.6-.4 1.2-.9 1.9-1.4l8.5 6H1.4l8.4-6zm5-.5c3.3-2.5 7.1-5.2 8.5-6.1v12.1l-8.5-6zm-13.7-7h21.8c.1 0 .2.1.3.2-.9.5-3.5 2.3-11.2 8-.7-.5-3.1-2.3-5.5-4-3.6-2.6-5-3.6-5.7-4 .1-.2.2-.2.3-.2z"/></symbol><symbol id="lift" viewBox="0 0 24 24"><path d="M10 18c-.7 0-1.2.5-1.2 1.2s.5 1.2 1.2 1.2 1.2-.5 1.2-1.2c0-.6-.5-1.2-1.2-1.2zm0 1.6c-.2 0-.4-.2-.4-.4s.2-.4.4-.4.4.2.4.4c0 .3-.2.4-.4.4zM19.6 18c-.7 0-1.2.5-1.2 1.2s.5 1.2 1.2 1.2 1.2-.5 1.2-1.2c0-.6-.5-1.2-1.2-1.2zm0 1.6c-.2 0-.4-.2-.4-.4s.2-.4.4-.4.4.2.4.5c0 .2-.2.3-.4.3z"/><path d="M.4 20.4H6v1.2c0 .2.2.4.4.4H8c.2 0 .4-.2.4-.4v-.1c.6.4 1.4.6 2.1.5.7-.1 1.4-.5 1.8-1.1h5c.5.8 1.4 1.2 2.3 1.2s1.8-.5 2.3-1.2h1.7c.2 0 .4-.2.4-.4V14c0-1.1-.9-2-2-2h-.8V5.5c0-.6-.6-1.1-1.2-1.1h-5.4c-.8 0-1.4.4-1.8 1.1l-3.6 6.7V15.6h-.7V2.8c0-.6-.6-1.2-1.3-1.2S6 2.1 6 2.8v.8H1.6c-.2 0-.4.2-.4.4v9.2H.8c-.2 0-.4.2-.4.4V18c-.2 0-.4.2-.4.4V20c0 .3.2.4.4.4zm.4-.8v-.8H6v.8H.8zm9.2 1.6c-1.1 0-2-.9-2-2s.9-2 2-2 2 .9 2 2-.9 2-2 2zm2.7-1.2c.2-.7.1-1.4-.1-2h4.6c-.3.6-.4 1.3-.1 2h-4.4zm6.9 1.2c-1.1 0-2-.9-2-2s.9-2 2-2 2 .9 2 2-.9 2-2 2zM16 15.6v-.8h2.8v.8H16zm-6-2.8h2.8v.9l-.9.3c-.2.1-.3.2-.3.4v1.2H10v-2.8zm2.4 1.9l.9-.3c.2-.1.3-.2.3-.4v-1.3l1-.9.6.6c.1.1.4.1.6 0 .2-.1.1-.4 0-.6l-1.7-1.7c-.1-.1-.4-.1-.6 0-.1.1-.1.4 0 .6l.5.5-.8.8h-2.9L13 6.8h5.8v2.1c-.1 0-.3-.1-.4-.1-.7 0-1.2.5-1.2 1.2v2.4h-.8c-.7 0-1.2.5-1.2 1.2v2h-2.8v-.9zm6.4-.7H16v-.4c0-.2.2-.4.4-.4h1.2c.2 0 .4-.2.4-.4V10c0-.2.2-.4.4-.4s.4.2.4.4v4zm.8-7.2h.8v8.8h-.8V6.8zM23.2 20h-.9c.4-1.1-.1-2.4-1.1-3.1v-.5h2V20zM22 12.8c.7 0 1.2.5 1.2 1.2v1.6h-2v-2.8h.8zm-2.8-7.6h.8c.2 0 .4.2.4.4V6h-7l.1-.1c.2-.4.6-.7 1.1-.7h4.6zM9.6 16.4h10.8v.1c-1-.3-2 0-2.8.7H12c-1-.9-2.5-1.1-3.6-.3v-.5h1.2zM6.8 2.8c0-.2.2-.4.4-.4s.4.2.4.4v15c-.5.9-.5 2 0 2.9v.6h-.8V2.8zM3.6 4.4h.8v.8h-.8v-.8zm-.8 0v1.2c0 .2.2.4.4.4h1.6c.2 0 .4-.2.4-.4V4.4H6v4H2v-4h.8zm.8 4.8h.8v.8h-.8v-.8zM2 9.2h.8v1.2c0 .2.2.4.4.4h1.6c.2 0 .4-.2.4-.4V9.2H6v4H2v-4zM3.2 14H4v.8h-.8V14zm-2 0h1.2v1.2c0 .2.2.4.4.4h1.6c.2 0 .4-.2.4-.4V14H6v4H1.2v-4z"/></symbol><symbol id="location" viewBox="0 0 24 24"><path d="M12.3 0C7.7 0 4 3.7 4 8.2 4 13.4 10 24 12.3 24c2.2 0 8.3-10.8 8.3-15.8-.1-4.5-3.8-8.2-8.3-8.2zm0 23.3c-1.4 0-7.5-9.9-7.5-15C4.8 4.2 8.2.8 12.3.8s7.5 3.3 7.5 7.5c0 5.1-6.1 15-7.5 15z"/><path d="M12.3 4.5c-1.9 0-3.4 1.5-3.4 3.4s1.5 3.4 3.4 3.4 3.4-1.5 3.4-3.4-1.6-3.4-3.4-3.4zm0 6c-1.4 0-2.6-1.2-2.6-2.6s1.2-2.6 2.6-2.6 2.6 1.2 2.6 2.6-1.2 2.6-2.6 2.6z"/></symbol><symbol id="motor" viewBox="0 0 24 24"><path d="M5.1 15.3c-2 0-3.6 1.6-3.6 3.6s1.6 3.6 3.6 3.6 3.6-1.6 3.6-3.6-1.6-3.6-3.6-3.6zm0 6.3c-1.5 0-2.6-1.2-2.6-2.6 0-1.5 1.2-2.6 2.6-2.6s2.6 1.2 2.6 2.6c.1 1.4-1.2 2.6-2.6 2.6z"/><path d="M5.1 17.6c-.7 0-1.3.6-1.3 1.3 0 .7.6 1.3 1.3 1.3s1.3-.6 1.3-1.3c0-.7-.6-1.3-1.3-1.3zm0 1.6c-.2 0-.3-.1-.3-.3 0-.2.1-.3.3-.3.2 0 .3.1.3.3 0 .2-.1.3-.3.3zM8 6c1 0 1.9-.8 1.9-1.9S9.1 2.3 8 2.3s-1.8.8-1.8 1.8S7 6 8 6zm0-2.7c.5 0 .9.4.9.9S8.5 5 8 5c-.4 0-.8-.4-.8-.9s.3-.8.8-.8z"/><circle cx="20.8" cy="10.5" r=".8"/><path d="M22.4 13.2c.9-.6 1.5-1.6 1.5-2.7s-.6-2.1-1.5-2.7L10.1.6C9.5.2 8.8 0 8 0 6.3 0 4.7 1.2 4.1 2.8c0 .1-4 14.8-4 15 0 .3-.1.7-.1 1.1C0 21.7 2.3 24 5.1 24c1 0 1.9-.3 2.6-.8.1 0 14.7-9.9 14.7-10zm-2.3.4l-10.2 7c.2-.5.3-1.1.3-1.6 0-2.8-2.3-5.1-5.1-5.1-1.2 0-2.3.4-3.1 1.1l2.4-9C5 7.3 6.4 8.3 8 8.3c2.3 0 4.1-1.8 4.1-4.1 0-.5-.1-.9-.2-1.3l8 4.6c-1.3.4-2.3 1.6-2.3 3.1s1.1 2.7 2.5 3zm.7-.9c-1.2 0-2.2-1-2.2-2.2s1-2.2 2.2-2.2 2.2 1 2.2 2.2-1 2.2-2.2 2.2zM8 1c1.7 0 3.1 1.4 3.1 3.1S9.8 7.3 8 7.3 4.9 5.9 4.9 4.1 6.3 1 8 1zM1 18.9c0-2.3 1.8-4.1 4.1-4.1s4.1 1.8 4.1 4.1S7.4 23 5.1 23 1 21.2 1 18.9z"/></symbol><symbol id="pdf" viewBox="0 0 24 24"><path d="M21 5L16.3.3c-.2-.2-.3-.3-.6-.3h-12c-.3 0-.7.4-.7.8v22.4c0 .4.4.8.8.8h16.7c.4 0 .8-.4.8-.8V5.5c0-.2-.1-.4-.3-.5zm-.2 18.2c0 .2-.1.3-.3.3H3.8c-.2 0-.3-.1-.3-.3V.8c0-.2.1-.3.3-.3h12c.1 0 .2 0 .2.1l4.7 4.7c.1.1.1.1.1.2v17.7z"/><path d="M18.2 16.5c-.2-.2-.4-.3-.7-.4-1.2-.3-2.3-.4-3.3-.4-1.1-.9-1.8-1.9-2.3-2.7.8-2.2.7-3.1.7-3.2-.2-1.5-1.2-1.6-1.3-1.6-.3 0-.9 0-1.2 1-.1.4-.2.8-.1 1.2.1.5.3 1.5.9 2.7-.4 1-.9 2.2-1.8 3.7-1.6.6-2.6 1.4-3 1.7-.2.2-.4.5-.5.7-.1.3-.1.8.4 1.4.4.2.7.4 1.1.4.1 0 .3 0 .4-.1.2-.1.4-.2.6-.5.7-1.1 1.3-2.1 1.8-3 1.1-.4 2.5-.8 4.1-.9.8.6 1.7 1.3 2.8 1.9.5.3 1.1.1 1.4-.3.2-.2.2-.4.2-.4.2-.4.1-.8-.2-1.2zM7.3 20c0 .1-.1.1-.1.1-.2.1-.3-.1-.3-.1-.2-.2-.3-.4-.2-.6 0-.1.1-.2.2-.3.1-.1.8-.6 1.6-1-.3.6-.7 1.2-1.2 1.9zm3.6-9.8c0-.3 0-.6.1-.8.1-.2.2-.4.3-.4 0 0 .4.1.5.9 0 0 .1.6-.4 2-.3-.7-.4-1.3-.5-1.7zm-.4 6.2c.5-.9.8-1.6 1.1-2.3.4.6.9 1.2 1.5 1.8-1 0-1.8.2-2.6.5zm7.1 1s0 .1-.1.2-.2.1-.4.1c-.7-.3-1.2-.7-1.8-1.1.6.1 1.3.2 1.9.3.1 0 .2.1.3.1.2.2.2.3.1.4z"/></symbol><symbol id="screw" viewBox="0 0 24 24"><path d="M23.7 3c-.1-.2-.2-.3-.4-.4-.2 0-.4 0-.5.2l-1.5 1.5-1.6-1.7 1.5-1.5c.1-.1.2-.3.1-.5 0-.2-.2-.4-.4-.4-1.6-.6-3.4-.1-4.7 1.1-.6.7-1.1 1.5-1.3 2.5l-2.5-1-1.1 1.3c-.6-.1-1.3-.1-2.1.1L8 3 4.6 4.4l.1 1.8c-.6.5-1.2 1.1-1.6 1.7l-1.7-.1L0 11.2l1.3 1.1c-.1.8-.1 1.6.1 2.4L.1 15.9l1.5 3.4 1.7-.1c.5.6 1.1 1.2 1.8 1.6L5 22.5l3.4 1.3 1.1-1.3c.8.1 1.6.1 2.4-.1l1.2 1.2 3.4-1.5-.1-1.8c.6-.5 1.2-1.1 1.6-1.7l1.7.1 1.3-3.4-1.3-1c.1-.8.1-1.6-.1-2.4l1.3-1.2-.7-1.7c1-.1 1.9-.6 2.5-1.3 1.2-1.3 1.6-3.1 1-4.7zm-3.9 12.8l-.8 2h-1.5l-.2.2c-.5.7-1.1 1.4-1.8 1.9l-.3.2.1 1.5-2 .9-1.1-1.1H12c-.9.2-1.8.2-2.6.1h-.3l-1 1.1-2-.8v-1.6l-.2-.2c-.7-.4-1.4-1-1.9-1.7l-.2-.3-1.5.1-.9-2L2.5 15l-.1-.3c-.1-.9-.1-1.8-.1-2.7v-.3l-1.1-1 .8-2h1.5l.2-.3c.5-.7 1.1-1.4 1.8-1.9l.3-.2L5.7 5l2-.9 1.1 1.1H9c.9-.1 1.8-.1 2.6-.1h.3l1-1.1 2.1.8c0 .3 0 .5.1.7l-1.9 1.9c-.9-.4-1.8-.6-2.8-.6C6.9 6.8 4 9.6 4 13.2c0 3.5 2.8 6.4 6.4 6.4 3.5 0 6.4-2.8 6.4-6.3 0-.9-.2-1.8-.5-2.5l1.9-2 .8.2.6 1.5-1.1 1.1.1.3c.2.9.2 1.8.1 2.7l-.1.3 1.2.9zm-5.4-3.1l1.1-1.1c.2.6.3 1.1.3 1.8 0 2.9-2.4 5.4-5.3 5.4s-5.4-2.4-5.4-5.3 2.4-5.4 5.3-5.4c.7 0 1.4.1 2 .4l-1.2 1.2c-1.2-.4-2.5.1-3.4 1-1.5 1.5-1.5 4 0 5.6.8.7 1.7 1.1 2.8 1.1 2.1 0 3.9-1.7 3.9-3.9 0-.3 0-.5-.1-.8zm4-5c-.2-.1-.4 0-.6.1l-4.3 4.3c-.1.1-.2.3-.2.5.3 1 0 2-.7 2.8-1.1 1.1-2.9 1.1-4 0s-1.1-2.9 0-4c.5-.5 1.3-.8 2-.8l.8.1c.2.1.4 0 .5-.1l4.3-4.3c.1-.1.2-.4.1-.6-.5-1.4-.1-2.7.7-3.7.7-.7 1.7-1.1 2.7-1l-1.3 1.2c-.2.2-.2.5 0 .8l2.4 2.4c.1.1.3.1.4.2.1 0 .3-.1.4-.2l1.2-1.3c.1 1-.3 1.9-1 2.7-.8 1-2.2 1.4-3.4.9z"/><path d="M11.8 12.2c-.3-.3-.8-.5-1.2-.5-.5 0-.9.2-1.2.5-.7.6-.7 1.8 0 2.4.3.3.8.5 1.2.5.5 0 .9-.2 1.2-.5.7-.6.7-1.7 0-2.4zm-.8 1.6s0 .1 0 0c-.3.3-.6.3-.9 0-.3-.2-.3-.6 0-.9.1-.1.3-.2.5-.2s.3.1.4.2c.2.3.3.7 0 .9z"/></symbol><symbol id="sheer" viewBox="0 0 60 22"><path d="M38.8 11.5c0 .3.1.5.1.7.4 1.9 1.9 3.1 3.8 3.2 1.7.1 3-.5 4-1.9.5-.7 1.3-.8 1.9-.2.4.3.4.7.1 1.1-.2.2-.3.4-.5.6-.6.9-1.5 1.5-2.5 1.8-1.7.6-3.4.7-5 0-2.2-.8-3.6-2.4-3.9-4.8-.2-1.4-.1-2.9.6-4.2.9-1.9 2.4-3 4.5-3.3 1.4-.2 2.7-.1 4 .5 1.8.9 2.9 2.3 3.3 4.3.1.5.2 1.1.2 1.6 0 .3-.1.5-.5.5h-9.8c0 .1-.1.1-.3.1zm8.5-2.1C47 7.7 44.9 6.2 43 6.3c-2 .1-4 1.7-4.1 3.1h8.4zM25 11.4c0 .2 0 .3.1.4.4 2.1 2.1 3.5 4.1 3.5 1.6 0 2.8-.6 3.7-1.9.5-.7 1.3-.8 1.9-.2.3.3.3.7.1 1-.1.2-.2.3-.4.5-.7 1-1.6 1.6-2.8 2-1.7.6-3.4.6-5 0-2.3-.9-3.6-2.7-3.9-5.2-.1-1.2 0-2.4.5-3.4.9-2.1 2.5-3.4 4.8-3.7 1.2-.2 2.4-.1 3.6.4 2 .8 3.2 2.4 3.7 4.5.1.5.1 1 .2 1.5 0 .4-.1.5-.5.5H25.5c-.2.1-.3.1-.5.1zm8.5-2c-.3-1.7-2.3-3.2-4.3-3.1-1.9 0-3.9 1.6-4.1 3.1h8.4zM55.7 12.4c.2.1.2.2.3.3 1.1.9 2.2 1.8 3.2 2.8.1.1.2.1.2.2.4.4.4 1 .1 1.4-.4.4-.9.5-1.3.1-.8-.6-1.5-1.3-2.2-1.9-1.1-.9-2.1-1.8-3.2-2.7-.1-.1-.2-.2-.4-.3v8.5c0 .6-.5.9-1 .9s-.9-.4-.9-1v-.4-15-.5c0-.4 0-.4.4-.4H55.6c1.9-.1 3.9 1.4 4.1 3.6.2 2-1.1 3.8-3.2 4.2-.1.1-.4.1-.8.2zm-3.3-1.5H55.5c.3 0 .5 0 .8-.1.9-.3 1.5-.8 1.8-1.7.4-1.6-.8-3-2.4-3H52.5l-.1 4.8zM19.7 11.5h-5.4V16.6c-.1.4-.6.7-1 .7-.5 0-.8-.4-.9-.9v-.3V1.2c0-.2 0-.4.1-.6.1-.4.5-.6 1-.6.4.1.8.4.8.9v8.5c.3.1 5.1.1 5.4 0V9 5.6v-.3c0-.5.4-.9.9-.9s.9.4 1 .9V16.4c-.1.5-.5.9-1 .9s-.9-.4-.9-.9v-.3V12v-.5zM5.7 17.3c-1.3 0-2.5-.3-3.6-1-.5-.3-.9-.6-1.3-1.1-.2-.2-.4-.5-.5-.7-.2-.4-.1-.8.2-1.1.4-.4.9-.5 1.4-.2.2.2.5.4.7.6l.6.6c.6.6 1.3.9 2.2 1 .8.1 1.5.1 2.3-.2.3-.1.6-.3.9-.5.6-.5.7-1.3 0-1.8-.3-.2-.6-.4-1-.6-.9-.4-1.8-.6-2.7-.9-.8-.2-1.5-.4-2.2-.6-.3-.1-.6-.2-.8-.4-.7-.4-1.1-1-1.2-1.7-.4-1.4.2-2.6 1.6-3.3 2.2-1.1 4.3-1.1 6.5.1.4.2.8.5 1.1.8.3.2.4.6.6.9.2.6-.1.9-.6 1-.5.1-.9-.1-1.2-.4 0-.1-.1-.1-.1-.2-.5-.7-1.3-1.2-2.1-1.3-.9-.2-1.8-.2-2.6.2-.3.1-.7.3-.9.5-.6.5-.6 1.2 0 1.7.4.3.8.5 1.3.7 1.1.3 2.1.5 3.2.8.7.2 1.3.4 2 .8.8.4 1.4 1 1.6 1.9.2 1.1 0 2.1-.9 2.9-1 .9-2.1 1.4-3.4 1.5H5.7z"/></symbol><symbol id="sweeper" viewBox="0 0 24 24"><path d="M4.8 19.6c-.7 0-1.2.5-1.2 1.2S4.1 22 4.8 22 6 21.4 6 20.8c0-.7-.5-1.2-1.2-1.2zm0 1.6c-.2 0-.4-.2-.4-.4s.2-.4.4-.4.4.2.4.4-.2.4-.4.4zM13.2 19.6c-.7 0-1.2.5-1.2 1.2s.5 1.2 1.2 1.2 1.2-.5 1.2-1.2-.5-1.2-1.2-1.2zm0 1.6c-.2 0-.4-.2-.4-.4s.2-.4.4-.4.4.2.4.4-.2.4-.4.4zM15.6 12.8c.2 0 .4-.2.4-.4s-.2-.4-.4-.4h-.4c-.2 0-.4.2-.4.4s.2.4.4.4h.4z"/><path d="M22.6 15.6h.6c.4 0 .8-.4.8-.8v-2c0-.4-.4-.8-.8-.8h-.6c-.4 0-.7.1-1 .3V4c0-.6-.5-1.2-1.2-1.2h-2v-1c0-.8-.6-1.4-1.4-1.4-.8 0-1.4.6-1.4 1.4v1h-.8c-.7 0-1.4.5-1.5 1.2h-2c0-.6-.5-1.2-1.2-1.2H2.8c-1.1 0-2 .9-2 2v5c-.2 0-.4.1-.6.2s-.2.4-.2.6v8.8c0 .3.1.5.3.6l1.8 1.4c.1.5.4 1 .8 1.3H.4c-.2 0-.4.2-.4.4s.2.4.4.4h23.2c.2 0 .3-.1.4-.3.1-.1 0-.3-.1-.4.1-.1.1-.3.1-.5v-2c0-1.1-.9-2-2-2h-.4v-3.1c.3.3.6.4 1 .4zm0-2.8h.6v2h-.6c-.5 0-1-.4-1-1s.4-1 1-1zm-6.2-11c0-.3.3-.6.6-.6s.6.3.6.6v1h-1.2v-1zm-5.2 3h2v.8h-2v-.8zm0 1.6h2v7l-2-.9V6.4zm0 7l2 .9v1.1l-2-.9v-1.1zM1.6 4.8c0-.6.5-1.2 1.2-1.2H10c.2 0 .4.2.4.4v1.9L5.8 12l-4.2-1.9V4.8zm8.8 2.4v6.9l-3.9-1.8 3.9-5.1zM2.1 20.4l-1.2-1v-8.8l.3.1 9.5 4.4 2.5 1.1V18c-1.5 0-2.8 1.3-2.8 2.8H7.6c0-1.5-1.1-2.7-2.6-2.8-1.4-.1-2.7.9-2.9 2.4zm2.7 2.4c-1.1 0-2-.9-2-2s.9-2 2-2 2 .9 2 2-.9 2-2 2zm2 0c.3-.3.6-.8.7-1.2h3c.1.5.4.9.7 1.2H6.8zm6.4 0c-1.1 0-2-.9-2-2s.9-2 2-2 2 .9 2 2-.9 2-2 2zm2 0c.3-.3.6-.8.7-1.2h.9v.8c0 .1 0 .3.1.4h-1.7zm1.6-2.4v.4H16c0-1.3-.8-2.3-2-2.7V4.4c0-.4.4-.8.8-.8h5.6c.2 0 .4.2.4.4v.8h-4c-.9 0-1.6.7-1.6 1.6v3.8c0 .2.1.4.3.6l1.8 1.8c.1.1.4.3.6.3h3v2l-1.3-1c-.1-.1-.3-.2-.5-.2h-3c-.4 0-.8.4-.8.8V16c0 .9.7 1.6 1.6 1.6h4v.8h-2c-1.2 0-2.1.9-2.1 2zm4-14.8V12h-3L16 10.2V6.4c0-.4.4-.8.8-.8h4zm0 10.2v1h-4c-.4 0-.8-.4-.8-.8v-1.6h3l1.8 1.4zm-2.4 7H18c-.2 0-.4-.2-.4-.4v-.8h.8v1.2zm1.6 0h-.8v-1.2h.8v1.2zm1.6 0h-.8v-1.2h.8v1.2zm1.6-.4c0 .2-.2.4-.4.4h-.4v-1.2h.8v.8zM22 19.2c.6 0 1.2.5 1.2 1.2v.4h-5.6v-.4c0-.6.5-1.2 1.2-1.2H22z"/><path d="M1.9 12.7l2.4 1.2c.2.1.4 0 .5-.2s0-.4-.2-.5L2.2 12c-.1-.1-.3-.1-.4 0-.1.1-.2.2-.2.4s.1.3.3.3zM1.9 14.3l2.4 1.2c.2.1.4 0 .5-.2s0-.4-.2-.5l-2.4-1.2c-.1-.1-.3-.1-.4 0-.1.1-.2.2-.2.4s.1.3.3.3zM4.8 17c.1-.2 0-.4-.2-.5l-2.4-1.2c-.1-.1-.3-.1-.4 0-.1.1-.2.2-.2.4 0 .1.1.3.2.3l2.4 1.2c.2 0 .5-.1.6-.2zM17.2 7.2h.8c.2 0 .4-.2.4-.4s-.2-.4-.4-.4h-.8c-.2 0-.4.2-.4.4s.2.4.4.4zM19.6 7.2c.1 0 .2 0 .3-.1.1-.1.1-.2.1-.3v-.1-.1-.1-.1c-.1-.1-.2-.1-.4-.1h-.1-.2v.4c0 .1 0 .2.1.3 0 .2.1.2.2.2z"/></symbol><symbol id="tie" viewBox="0 0 24 24"><path d="M20.6 3H18V2.7c-.9-1.5-1.5-2.3-2-2.4-.2 0-1.8-.4-4-.4-2.1.1-3.7.4-4 .5-.4 0-1.1.8-2 2.3V3H3.4c-1 0-1.9.8-1.9 1.9v17.2c0 1 .8 1.9 1.9 1.9h17.3c1 0 1.9-.8 1.9-1.9V4.9c-.1-1.1-.9-1.9-2-1.9zm-3.4 0c-.2.9-.5 1.9-.7 2.4L14.7 3l1.2-1.8c.3.2.8.9 1.3 1.8zM12 .8c1.3 0 2.5.1 3.1.2L14 2.7c-.1-.1-.3-.1-.5-.1h-3.2L8.9 1C9.6.9 10.7.8 12 .8zm1.4 4.1c0 .1-.1.2-.1.2-.2-.2-.4-.3-.7-.3h-1.1c-.3 0-.6.1-.7.3-.1 0-.2-.1-.2-.2l-.3-1.5c0-.1.1-.2.2-.2h3c.1 0 .2.1.2.2l-.3 1.5zM9 17.1l-1-.4L9.7 11 9 17.1zm1.9-9.8c.2.1.4.2.6.2h1.1c.2 0 .4-.1.6-.2l1.5 13.2c-.3.3-1.5 1.1-2.6 1.8-1.1-.7-2.3-1.5-2.6-1.7l1.4-13.3zm.4-.7v-.9c0-.1 0-.1.2-.1h1.1c.2 0 .2 0 .2.1v.9c0 .1 0 .1-.2.1h-1.1c-.2.1-.2 0-.2-.1zM8.1 1.2L9.6 3 7.5 5.4C7.3 5 7 3.9 6.8 3c.5-.9 1-1.7 1.3-1.8zm13.7 20.9c0 .6-.5 1.1-1.1 1.1H3.4c-.6 0-1.1-.5-1.1-1.1V4.9c0-.6.5-1.1 1.1-1.1h2.8c.6 2.6 1.1 2.6 1.3 2.6h.2l2-2.3.1.9c0 .4.3.7.7.9v.6c-.2.1-.3.3-.4.6L7 17.1l1.9.7-.3 2.7c0 .2 0 .6 3.2 2.4l.2.1.2-.1c3.2-1.9 3.2-2.2 3.2-2.4L13.9 7.2c0-.3-.2-.5-.4-.7v-.7c.4-.1.7-.4.7-.8l.2-1.1 1.9 2.5h.2c.2 0 .7 0 1.3-2.6h2.8c.6 0 1.1.5 1.1 1.1v17.2z"/></symbol><symbol id="tools" viewBox="0 0 24 24"><path d="M8 21.6c0 .4-.4.8-.8.8s-.8-.4-.8-.8.4-.8.8-.8.8.4.8.8z"/><path d="M21.6 19.2h-2.8v-.8h2.4c.2 0 .4-.2.4-.4v-3.2c0-.1 0-.2-.1-.3l-1.1-1.1v-.6c0-.7-.5-1.2-1.2-1.2h-2.5l-.4-1.5c-.5-1.7-1.7-3.2-3.4-3.9L4.1 2.3c-.1 0-.2-.1-.4-.1v-.9C3.7.6 3.2.1 2.6 0 1.9-.1 1.2.2.9.8L.3 2C.1 2.5 0 3 0 3.5c0 .4 0 .7.1 1.1l1.5 8.9-.1.1c-1 .7-1.5 1.7-1.5 2.9s.7 2.1 1.6 2.7l.5.3c.1 0 .1.1.2.1h2c.1 0 .3-.1.4-.2s.1-.3 0-.4L4 17.9v-4.3-.2l-.2-7.8 6.4 3.5c.5.3 1 .8 1.2 1.3H9.2c-.1 0-.3.1-.3.2L7.3 13c0 .1-.1.1-.1.2V18c0 .2.2.4.4.4H10v.8H7.2c-1.3 0-2.4 1.1-2.4 2.4 0 1.3 1.1 2.4 2.4 2.4h14.4c1.3 0 2.4-1.1 2.4-2.4s-1.1-2.4-2.4-2.4zm-11.2.8h9.4c-.8.9-.8 2.3 0 3.2H9c.8-.9.8-2.3 0-3.2h1.4zm9.2-7.2v.4H16v-.4c0-.2.2-.4.4-.4h2.8c.2 0 .4.2.4.4zm-16.7.4s.1 0 0 0c.1 0 .1.1.1.1s0 .1.1.1v.2c0 .2-.1.4-.3.4-.2 0-.4-.2-.4-.4s.2-.4.4-.4h.1zm-.4 5.6l-.4-.3c-.7-.4-1.2-1.2-1.2-2-.1-.8.3-1.7.9-2.2l.1.1c.3.4.8.5 1.3.3V18c0 .1 0 .1.1.2l.4.6H2.5zm.7-6.3h-.5-.1-.1-.2L.9 4.4c0-.3-.1-.7-.1-1 0-.4.1-.8.3-1.1l.6-1.2c.1-.2.3-.3.4-.3.2 0 .4 0 .5.1.1.1.2.3.2.4v1c-.4.3-.8.8-.8 1.4s.3 1.1.8 1.4l.2.1.2 7.3zm7.3-4.2l-7.3-4c-.3-.1-.5-.6-.3-.9.2-.4.6-.5.9-.4l8.8 3.8c1.5.6 2.5 1.9 2.9 3.4l.4 1.4c-.4.2-.7.6-.7 1.1v.4h-.8v-2.4c0-.2-.2-.4-.4-.4h-1.8c-.3-.8-.9-1.5-1.7-2zm-2.5 5l1.4-2.1h4.2v1.2h-.8c-.1 0-.2 0-.3.1l-2.4 2.4c-.1.1-.1.2-.1.3v.8H8v-2.7zm5.6-.1V16h-2.8v-.6l2.2-2.2h.6zM8 16.8h6c.2 0 .4-.2.4-.4V14h5.4l1 1v2.6H8v-.8zm2.8 1.6H18v.8h-7.2v-.8zm-5.2 3.2c0-.9.7-1.6 1.6-1.6s1.6.7 1.6 1.6-.7 1.6-1.6 1.6c-.9 0-1.6-.7-1.6-1.6zm16 1.6c-.9 0-1.6-.7-1.6-1.6 0-.9.7-1.6 1.6-1.6s1.6.7 1.6 1.6c0 .9-.7 1.6-1.6 1.6z"/><path d="M22.4 21.6c0 .4-.4.8-.8.8s-.8-.4-.8-.8.4-.8.8-.8.8.4.8.8zM15.2 21.2h.8v.8h-.8v-.8zM12.8 21.2h.8v.8h-.8v-.8zM17.6 21.2h.8v.8h-.8v-.8zM10.4 21.2h.8v.8h-.8v-.8zM18.8 14.8h.8V16h-.8v-1.2zM17.2 14.8h.8V16h-.8v-1.2z"/></symbol><symbol id="user" viewBox="0 0 24 24"><path d="M12 0C5.4 0 0 5.4 0 12s5.4 12 12 12 12-5.4 12-12S18.6 0 12 0zm0 23c-2.3 0-4.3-.7-6.1-1.8l1-4.9c.2-1.2 1.1-2.1 2.3-2.2.8.6 1.7 1 2.8 1 1 0 2-.4 2.8-1 1.2 0 2.2 1 2.4 2.2l1 4.8C16.4 22.3 14.3 23 12 23zM8 9.5c0-2.2 1.8-4 4-4s4 1.8 4 4c0 2.3-2 4.5-4 4.5s-4-2.2-4-4.5zm11.1 10.9l-.9-4.3c-.2-1.4-1.2-2.5-2.5-2.9.8-1 1.3-2.4 1.3-3.7 0-2.7-2.3-5-5-5s-5 2.3-5 5c0 1.3.6 2.7 1.4 3.7-1.3.4-2.3 1.5-2.4 2.8l-1 4.5c-2.5-2-4-5.1-4-8.5C1 5.9 5.9 1 12 1s11 4.9 11 11c0 3.4-1.5 6.4-3.9 8.4z"/></symbol></svg>