<svg xmlns="http://www.w3.org/2000/svg" viewBox="0 0 60 22">
    <path d="M38.9 11.5c0 .3.1.5.1.7.4 1.9 1.9 3.1 3.8 3.3 1.7.1 3-.5 4-1.9.5-.7 1.3-.8 1.9-.2.4.3.4.7.1 1.1-.2.2-.3.4-.5.6-.6.9-1.5 1.5-2.5 1.8-1.7.6-3.4.7-5 .1-2.2-.8-3.6-2.5-4-4.8-.2-1.4-.1-2.9.6-4.2 1-1.9 2.5-3 4.5-3.3 1.4-.2 2.8-.1 4 .5 1.8.9 2.9 2.3 3.4 4.3.1.5.2 1.1.2 1.6 0 .3-.1.5-.5.5h-9.8c0-.1-.2-.1-.3-.1zm8.5-2C47.1 7.7 45 6.2 43 6.3c-2 .1-4 1.7-4.1 3.2h8.5z"/>
    <path d="M24.9 11.5c0 .2 0 .3.1.4.4 2.1 2.1 3.5 4.1 3.5 1.6 0 2.8-.6 3.7-1.9.5-.7 1.4-.8 2-.2.3.3.3.7.1 1-.1.2-.3.3-.4.5-.7 1-1.6 1.7-2.8 2-1.7.5-3.4.6-5 0-2.3-.9-3.6-2.7-3.9-5.2-.1-1.2 0-2.4.5-3.5.9-2.1 2.5-3.4 4.8-3.7 1.2-.2 2.4-.1 3.6.4 2 .9 3.2 2.4 3.7 4.6.1.5.1 1 .2 1.5 0 .4-.1.5-.5.5H25.5c-.2.1-.4.1-.6.1zm8.6-2.1c-.3-1.7-2.3-3.2-4.3-3.1-1.9.1-4 1.6-4.1 3.1h8.4z"/>
    <path d="M55.9 12.4l.3.3c1.1.9 2.2 1.8 3.3 2.8.1.1.2.1.2.2.4.4.4 1 .1 1.4-.3.4-.9.5-1.3.1-.8-.6-1.5-1.3-2.2-1.9-1.1-.9-2.1-1.8-3.2-2.7-.1-.1-.2-.2-.4-.3v8.6c0 .6-.5 1-1 .9-.5 0-.9-.4-.9-1v-.4V5.3v-.5c0-.4 0-.4.4-.4H56c1.9-.1 4 1.4 4.2 3.6.2 2-1.2 3.8-3.2 4.2-.5.1-.8.2-1.1.2zm-3.4-1.5H55.6c.3 0 .5 0 .8-.1.9-.3 1.5-.8 1.8-1.7.4-1.6-.8-3-2.4-3H52.6c-.1 1.6-.1 3.2-.1 4.8z"/>
    <path d="M19.6 11.5h-5.5V16.1c0 .2 0 .3-.1.5-.1.4-.6.7-1 .7-.5 0-.8-.4-.9-.9v-.3-15c0-.2 0-.4.1-.6.2-.4.6-.7 1.1-.6.4.1.8.4.8.9v8.6c.3.1 5.1.1 5.4 0V9 5.6v-.3c0-.5.4-.9.9-.9s.9.3 1 .9V16.4c-.1.5-.5.9-1 .9s-.9-.4-1-.9v-.3V12c.2-.1.2-.3.2-.5z"/>
    <path d="M5.5 17.4c-1.3 0-2.5-.3-3.7-1-.5-.3-.9-.6-1.3-1.1-.2-.2-.3-.5-.5-.7-.2-.4-.1-.8.2-1.1.4-.4.9-.5 1.4-.2.4.2.6.5.8.7l.6.6c.6.6 1.3.9 2.2 1 .8.1 1.6.1 2.3-.2.3-.1.6-.3.9-.5.6-.5.7-1.3 0-1.8-.3-.2-.7-.4-1-.6-.9-.4-1.8-.6-2.7-.9-.8-.2-1.5-.4-2.2-.7-.3-.1-.6-.2-.8-.4C1 10.1.6 9.5.5 8.7.1 7.3.7 6 2.2 5.3c2.2-1.1 4.4-1.1 6.5.1.4.3.8.6 1.1.9.3.2.4.5.5.9.2.6-.1.9-.6 1-.4.1-.8 0-1.2-.4.1-.1 0-.2-.1-.2-.5-.8-1.2-1.2-2.1-1.4-.9-.1-1.8-.1-2.6.2-.3.1-.6.3-.9.5-.6.5-.6 1.2 0 1.7.4.4.8.6 1.3.8 1.1.3 2.1.5 3.2.8.7.2 1.4.4 2 .7.8.4 1.4 1 1.6 2 .2 1.1 0 2.1-.9 2.9-1 .9-2.1 1.4-3.4 1.6-.4-.1-.7 0-1.1 0z"/>
</svg>
