<svg xmlns="http://www.w3.org/2000/svg" viewBox="0 0 60 22"><path d="M38.9 11.5c0 0.3 0.1 0.5 0.1 0.7 0.4 1.9 1.9 3.1 3.8 3.3 1.7 0.1 3-0.5 4-1.9 0.5-0.7 1.3-0.8 1.9-0.2 0.4 0.3 0.4 0.7 0.1 1.1 -0.2 0.2-0.3 0.4-0.5 0.6 -0.6 0.9-1.5 1.5-2.5 1.8 -1.7 0.6-3.4 0.7-5 0.1 -2.2-0.8-3.6-2.5-4-4.8 -0.2-1.4-0.1-2.9 0.6-4.2 1-1.9 2.5-3 4.5-3.3 1.4-0.2 2.8-0.1 4 0.5 1.8 0.9 2.9 2.3 3.4 4.3 0.1 0.5 0.2 1.1 0.2 1.6 0 0.3-0.1 0.5-0.5 0.5 -0.2 0-0.3 0-0.5 0 -3.1 0-6.2 0-9.3 0C39.2 11.5 39 11.5 38.9 11.5zM47.4 9.5C47.1 7.7 45 6.2 43 6.3c-2 0.1-4 1.7-4.1 3.2C41.7 9.5 44.5 9.5 47.4 9.5z"/><path d="M24.9 11.5c0 0.2 0 0.3 0.1 0.4 0.4 2.1 2.1 3.5 4.1 3.5 1.6 0 2.8-0.6 3.7-1.9 0.5-0.7 1.4-0.8 2-0.2 0.3 0.3 0.3 0.7 0.1 1 -0.1 0.2-0.3 0.3-0.4 0.5 -0.7 1-1.6 1.7-2.8 2 -1.7 0.5-3.4 0.6-5 0 -2.3-0.9-3.6-2.7-3.9-5.2 -0.1-1.2 0-2.4 0.5-3.5 0.9-2.1 2.5-3.4 4.8-3.7 1.2-0.2 2.4-0.1 3.6 0.4 2 0.9 3.2 2.4 3.7 4.6 0.1 0.5 0.1 1 0.2 1.5 0 0.4-0.1 0.5-0.5 0.5 -0.7 0-1.5 0-2.2 0 -2.5 0-5 0-7.4 0C25.3 11.5 25.1 11.5 24.9 11.5zM33.5 9.4c-0.3-1.7-2.3-3.2-4.3-3.1 -1.9 0.1-4 1.6-4.1 3.1C27.8 9.4 30.6 9.4 33.5 9.4z"/><path d="M55.9 12.4c0.1 0.1 0.2 0.2 0.3 0.3 1.1 0.9 2.2 1.8 3.3 2.8 0.1 0.1 0.2 0.1 0.2 0.2 0.4 0.4 0.4 1 0.1 1.4 -0.3 0.4-0.9 0.5-1.3 0.1 -0.8-0.6-1.5-1.3-2.2-1.9 -1.1-0.9-2.1-1.8-3.2-2.7 -0.1-0.1-0.2-0.2-0.4-0.3 0 0.2 0 0.4 0 0.5 0 2.6 0 5.1 0 7.7 0 0.1 0 0.2 0 0.4 0 0.6-0.5 1-1 0.9 -0.5 0-0.9-0.4-0.9-1 0-0.1 0-0.2 0-0.4 0-5 0-10.1 0-15.1 0-0.2 0-0.3 0-0.5 0-0.4 0-0.4 0.4-0.4 0.5 0 0.9 0 1.4 0 1.1 0 2.2 0 3.4 0 1.9-0.1 4 1.4 4.2 3.6 0.2 2-1.2 3.8-3.2 4.2C56.5 12.3 56.2 12.4 55.9 12.4zM52.5 10.9c0.1 0 0.2 0 0.3 0 0.9 0 1.9 0 2.8 0 0.3 0 0.5 0 0.8-0.1 0.9-0.3 1.5-0.8 1.8-1.7 0.4-1.6-0.8-3-2.4-3 -1 0-1.9 0-2.9 0 -0.1 0-0.2 0-0.3 0C52.5 7.7 52.5 9.3 52.5 10.9z"/><path d="M19.6 11.5c-1.9 0-3.6 0-5.5 0 0 0.2 0 0.3 0 0.4 0 1.4 0 2.8 0 4.2 0 0.2 0 0.3-0.1 0.5 -0.1 0.4-0.6 0.7-1 0.7 -0.5 0-0.8-0.4-0.9-0.9 0-0.1 0-0.2 0-0.3 0-5 0-10 0-15 0-0.2 0-0.4 0.1-0.6 0.2-0.4 0.6-0.7 1.1-0.6 0.4 0.1 0.8 0.4 0.8 0.9 0 0.1 0 0.3 0 0.4 0 2.6 0 5.1 0 7.7 0 0.2 0 0.3 0 0.5 0.3 0.1 5.1 0.1 5.4 0 0-0.1 0-0.3 0-0.4 0-1.1 0-2.3 0-3.4 0-0.1 0-0.2 0-0.3 0-0.5 0.4-0.9 0.9-0.9 0.5 0 0.9 0.3 1 0.9 0 0.1 0 0.2 0 0.3 0 3.5 0 7 0 10.5 0 0.1 0 0.2 0 0.3 -0.1 0.5-0.5 0.9-1 0.9 -0.5 0-0.9-0.4-1-0.9 0-0.1 0-0.2 0-0.3 0-1.4 0-2.7 0-4.1C19.6 11.9 19.6 11.7 19.6 11.5z"/><path d="M5.5 17.4c-1.3 0-2.5-0.3-3.7-1 -0.5-0.3-0.9-0.6-1.3-1.1 -0.2-0.2-0.3-0.5-0.5-0.7 -0.2-0.4-0.1-0.8 0.2-1.1 0.4-0.4 0.9-0.5 1.4-0.2C2 13.5 2.2 13.8 2.4 14c0.2 0.2 0.4 0.4 0.6 0.6 0.6 0.6 1.3 0.9 2.2 1 0.8 0.1 1.6 0.1 2.3-0.2 0.3-0.1 0.6-0.3 0.9-0.5 0.6-0.5 0.7-1.3 0-1.8 -0.3-0.2-0.7-0.4-1-0.6 -0.9-0.4-1.8-0.6-2.7-0.9 -0.8-0.2-1.5-0.4-2.2-0.7 -0.3-0.1-0.6-0.2-0.8-0.4 -0.7-0.4-1.1-1-1.2-1.8C0.1 7.3 0.7 6 2.2 5.3c2.2-1.1 4.4-1.1 6.5 0.1C9.1 5.7 9.5 6 9.8 6.3c0.3 0.2 0.4 0.5 0.5 0.9 0.2 0.6-0.1 0.9-0.6 1 -0.4 0.1-0.8 0-1.2-0.4C8.6 7.7 8.5 7.6 8.4 7.6 7.9 6.8 7.2 6.4 6.3 6.2 5.4 6.1 4.5 6.1 3.7 6.4 3.4 6.5 3.1 6.7 2.8 6.9c-0.6 0.5-0.6 1.2 0 1.7C3.2 9 3.6 9.2 4.1 9.4c1.1 0.3 2.1 0.5 3.2 0.8 0.7 0.2 1.4 0.4 2 0.7 0.8 0.4 1.4 1 1.6 2 0.2 1.1 0 2.1-0.9 2.9 -1 0.9-2.1 1.4-3.4 1.6C6.2 17.3 5.9 17.4 5.5 17.4z"/></svg>
