<?xml version="1.0" encoding="utf-8"?>
<!-- Generator: Adobe Illustrator 22.1.0, SVG Export Plug-In . SVG Version: 6.00 Build 0)  -->
<svg version="1.1" id="Слой_1" xmlns="http://www.w3.org/2000/svg" xmlns:xlink="http://www.w3.org/1999/xlink" x="0px" y="0px"
	 viewBox="0 0 80 80" style="enable-background:new 0 0 80 80;" xml:space="preserve">
<path d="M68.8,34.6L68.8,34.6c-0.4-0.4-1.2-0.4-1.7,0l-0.8,0.8l-0.8-0.8c-0.4-0.4-1.2-0.4-1.7,0l0,0c-0.4,0.4-0.4,1.2,0,1.7l0.8,0.8
	l-0.8,0.8c-0.4,0.4-0.4,1.2,0,1.7l0,0c0.4,0.4,1.2,0.4,1.7,0l0.8-0.8l0.8,0.8c0.4,0.4,1.2,0.4,1.7,0l0,0c0.4-0.4,0.4-1.2,0-1.7
	L68,37.1l0.8-0.8C69.2,35.8,69.2,35.1,68.8,34.6z"/>
<path d="M30.7,19.8l-0.8,0.8l-0.8-0.8c-0.4-0.4-1.2-0.4-1.7,0l0,0c-0.4,0.4-0.4,1.2,0,1.7l0.8,0.8l-0.8,0.8c-0.4,0.4-0.4,1.2,0,1.7
	l0,0c0.4,0.4,1.2,0.4,1.7,0l0.8-0.8l0.8,0.8c0.4,0.4,1.2,0.4,1.7,0l0,0c0.4-0.4,0.4-1.2,0-1.7l-0.8-0.8l0.8-0.8
	c0.4-0.4,0.4-1.2,0-1.7l0,0C31.9,19.3,31.1,19.3,30.7,19.8z"/>
<path d="M38.4,50.9l4.1-4.1l-2-2L78.9,6.3c1.4-1.4,1.4-3.8,0-5.2c-1.4-1.4-3.8-1.4-5.2,0L35.2,39.6l-2-2l-4.1,4.1
	c-3.6-2.8-8.9-2.6-12.2,0.7l-0.1,0.1l-0.1,0.1c-4.4,7.9-9.5,12.3-16.1,16.5c-0.5,0.3-0.7,1-0.4,1.5c0.3,0.5,1,0.7,1.5,0.4
	c6.8-4.3,12.3-8.9,16.8-17.1c2.8-2.6,7.1-2.6,9.8,0.1l7.7,7.7c2.7,2.7,2.7,7.1,0.1,9.8C28,66.1,23.3,71.6,19.1,78.3
	c-0.3,0.5-0.2,1.2,0.4,1.5c0.5,0.3,1.2,0.2,1.5-0.4c4.2-6.7,8.6-11.8,16.5-16.1l0.1-0.1l0.1-0.1C41,59.8,41.2,54.6,38.4,50.9z
	 M75.3,2.6c0.6-0.6,1.5-0.6,2.1,0s0.6,1.5,0,2.1L38.9,43.2l-2.1-2.1L75.3,2.6z M33.6,41.1l5.2,5.2l0.5,0.5l-2.5,2.5l-6.2-6.2
	l2.5-2.5L33.6,41.1z"/>
<path d="M9.7,70.1L9.7,70.1c-0.4-0.4-0.4-1.1,0-1.5l9.1-9.1c0.4-0.4,1.1-0.4,1.5,0l0,0c0.4,0.4,0.4,1.1,0,1.5l-9.1,9.1
	C10.8,70.5,10.1,70.5,9.7,70.1z"/>
<path d="M14,74.4L14,74.4c-0.4-0.4-0.4-1.1,0-1.5l9.1-9.1c0.4-0.4,1.1-0.4,1.5,0l0,0c0.4,0.4,0.4,1.1,0,1.5l-9.1,9.1
	C15.1,74.8,14.4,74.8,14,74.4z"/>
<path d="M5.5,65.9L5.5,65.9c-0.4-0.4-0.4-1.1,0-1.5l9.1-9.1c0.4-0.4,1.1-0.4,1.5,0l0,0c0.4,0.4,0.4,1.1,0,1.5l-9.1,9.1
	C6.6,66.3,5.9,66.3,5.5,65.9z"/>
</svg>
