<svg xmlns="http://www.w3.org/2000/svg" viewBox="0 0 24 24"><path d="M22.6 11.4c0-1.1-0.2-2.2-0.5-3.3 1.7-1.8 1.6-4.7-0.2-6.6 -0.9-1-2.2-1.6-3.5-1.6 -1.2 0-2.3 0.4-3.1 1.2l0.1 0.1c-1.1-0.4-2.2-0.6-3.4-0.6 -1.2 0-2.3 0.2-3.4 0.6 -0.9-0.8-2-1.2-3.2-1.2 0 0 0 0 0 0C4 0.1 2.8 0.6 1.9 1.5 0.1 3.4 0 6.4 1.7 8.2c-0.3 1-0.5 2.1-0.5 3.2 0 3.6 1.8 6.8 4.5 8.7 -0.2 0.1-0.3 0.2-0.5 0.3 -0.6 0.4-1 0.7-1 1.7 0 0.7 0.2 1.1 0.5 1.4C5.1 23.9 5.6 24 6.1 24c0.6 0 1.4-0.1 2.2-0.3 1.1-0.2 2.4-0.4 3.7-0.4 1.3 0 2.6 0.2 3.7 0.4 1.5 0.3 2.7 0.5 3.4-0.1 0.4-0.3 0.5-0.8 0.5-1.5 0-1-0.4-1.3-1-1.7 -0.2-0.1-0.3-0.2-0.5-0.4C20.8 18.2 22.6 15 22.6 11.4zM18.3 0.8c1.1 0 2.2 0.5 3 1.3 1.4 1.5 1.6 3.8 0.4 5.2 -1.1-2.6-3.2-4.7-5.8-5.8C16.6 1 17.4 0.7 18.3 0.8zM2.4 2.1c0.8-0.8 1.8-1.2 2.9-1.2 0.9 0 1.7 0.3 2.4 0.8C5.1 2.7 3.1 4.8 2 7.4 0.9 5.8 1 3.5 2.4 2.1zM18.2 21.1c0.5 0.3 0.7 0.4 0.7 1 0 0.4-0.1 0.7-0.3 0.9 -0.4 0.3-1.5 0.1-2.8-0.1 -1.1-0.2-2.4-0.4-3.8-0.4 -1.4 0-2.7 0.2-3.8 0.4 -1.3 0.2-2.4 0.4-2.9 0.1C5.1 22.9 5 22.6 5 22.2c0-0.6 0.2-0.7 0.7-1.1 0.2-0.1 0.5-0.3 0.7-0.5 1.6 1 3.5 1.5 5.5 1.5 2 0 3.9-0.6 5.5-1.5C17.7 20.8 18 21 18.2 21.1zM11.9 21.3c-5.5 0-9.9-4.4-9.9-9.9C2 6 6.4 1.5 11.9 1.5c5.5 0 9.9 4.4 9.9 9.9C21.8 16.9 17.4 21.3 11.9 21.3z"/><path d="M11.9 3.1c-4.6 0-8.4 3.8-8.4 8.4s3.8 8.4 8.4 8.4 8.4-3.8 8.4-8.4S16.5 3.1 11.9 3.1zM11.9 19.1c-4.2 0-7.6-3.4-7.6-7.6 0-4.2 3.4-7.6 7.6-7.6 4.2 0 7.6 3.4 7.6 7.6C19.5 15.6 16.1 19.1 11.9 19.1z"/><polygon points="12.3 6.1 11.5 6.1 11.5 11.1 11.5 11.4 11.5 11.8 15 11.8 15 11.1 12.3 11.1 "/><rect x="11.5" y="17.5" width="0.8" height="1.1"/><rect x="11.5" y="4.2" width="0.8" height="1.1"/><rect x="4.7" y="11.1" width="1.1" height="0.8"/><rect x="18" y="11.1" width="1.1" height="0.8"/></svg>
