<?xml version="1.0" encoding="utf-8"?>
<!-- Generator: Adobe Illustrator 22.1.0, SVG Export Plug-In . SVG Version: 6.00 Build 0)  -->
<svg version="1.1" id="Слой_1" xmlns="http://www.w3.org/2000/svg" xmlns:xlink="http://www.w3.org/1999/xlink" x="0px" y="0px"
	 viewBox="0 0 80 80" style="enable-background:new 0 0 80 80;" xml:space="preserve">
<path d="M73.2,66.1c-1.7,0-3.1,1.4-3.1,3.1c0,1.7,1.4,3.1,3.1,3.1s3.1-1.4,3.1-3.1C76.2,67.5,74.9,66.1,73.2,66.1z M73.2,70.2
	c-0.5,0-1-0.4-1-1c0-0.5,0.4-1,1-1c0.5,0,1,0.4,1,1C74.2,69.7,73.7,70.2,73.2,70.2z"/>
<path d="M34.1,66.1c-1.7,0-3.1,1.4-3.1,3.1c0,1.7,1.4,3.1,3.1,3.1s3.1-1.4,3.1-3.1C37.2,67.5,35.8,66.1,34.1,66.1z M34.1,70.2
	c-0.5,0-1-0.4-1-1c0-0.5,0.4-1,1-1c0.5,0,1,0.4,1,1C35.1,69.7,34.7,70.2,34.1,70.2z"/>
<path d="M73.2,62.4H62.9v-2.2H69h2.1h3.1V42.6l-3.1-2.4V16.6h-1.6V10h-6.3v6.6H49.2l-8,13.4L15.9,5.7c-0.2-0.6-0.6-1.1-1-1.5
	c-0.9-0.8-2-1.3-3.2-1.2c-0.1,0-0.3,0-0.4,0.1L2.9,5C1.8,5.3,1.1,6.2,1.1,7.3v9.8h2.1V9.7l1,0.2v11.1H0.9v11.6h2.1v1.2
	C1.3,34.3,0,35.9,0,37.8c0,2.2,1.8,4.1,4.1,4.1s4.1-1.8,4.1-4.1H6.1c0,1.1-0.9,2-2,2s-2-0.9-2-2s0.9-2,2-2h1v-3.1h2.1V21.1h-1V10.4
	l5,1.2c0.1,0,0.3,0.1,0.4,0.1c0.1,0,0.2,0,0.3,0c0,0,0,0,0.1,0l24.4,27.1V51H32v9.2h4.4h2.1h6.2v2.2H34.1c-3.8,0-6.8,3.1-6.8,6.8
	s3.1,6.8,6.8,6.8h39.1c3.8,0,6.8-3.1,6.8-6.8S76.9,62.4,73.2,62.4z M71.1,42.8l1.1,0.8v14.5h-1.1V42.8z M36.3,58.1H34v-5.1h2.3V58.1
	z M65.3,12.1h2.1v1.5h-2.1V12.1z M65.3,15.6h2.1v1h-2.1V15.6z M5.1,30.6H3v-7.5h2.1V30.6z M11.8,9.6C11.8,9.6,11.7,9.6,11.8,9.6
	l-8.4-2c-0.2,0-0.3-0.2-0.3-0.3S3.2,7.1,3.4,7l8.3-1.9c0,0,0.1,0,0.1,0c0.1,0,0.1,0,0.1,0c0.6,0,1.1,0.2,1.6,0.6
	c0.5,0.4,0.7,1,0.7,1.7S13.9,8.6,13.5,9C13,9.4,12.4,9.7,11.8,9.6z M37.2,36.7L14.1,11c0.3-0.2,0.5-0.3,0.7-0.5
	c0.5-0.5,0.9-1.1,1.2-1.8l24,23.1L37.2,36.7z M38.4,58.1v-1.3h5.5v-2.1h-5.5V51V38.7l12-20h12.9H69v19.9v16.1H46.5v2.1H69v1.3h-6.2
	H44.5L38.4,58.1L38.4,58.1z M60.8,60.2v2.2H46.6v-2.2H60.8z M34.1,73.9c-2.6,0-4.7-2.1-4.7-4.7c0-2.6,2.1-4.7,4.7-4.7
	s4.7,2.1,4.7,4.7C38.9,71.8,36.7,73.9,34.1,73.9z M39,73.9c0.3-0.3,0.6-0.7,0.8-1.1h27.7c0.2,0.4,0.5,0.7,0.8,1.1H39z M42.1,70.8
	h-1.4c0.1-0.5,0.2-1.1,0.2-1.6c0-0.6-0.1-1.2-0.2-1.7h1.4c-0.3,0.5-0.4,1.1-0.4,1.7C41.7,69.7,41.8,70.3,42.1,70.8z M43.8,69.1
	c0-0.9,0.8-1.7,1.7-1.7s1.7,0.8,1.7,1.7s-0.8,1.7-1.7,1.7C44.5,70.8,43.8,70.1,43.8,69.1z M48.8,67.4h1.6c-0.3,0.5-0.4,1.1-0.4,1.7
	s0.1,1.2,0.4,1.7h-1.6c0.3-0.5,0.4-1.1,0.4-1.7S49,68,48.8,67.4z M52,69.1c0-0.9,0.8-1.7,1.7-1.7c0.9,0,1.7,0.8,1.7,1.7
	s-0.8,1.7-1.7,1.7C52.7,70.8,52,70.1,52,69.1z M57,67.4h1.5c-0.3,0.5-0.4,1.1-0.4,1.7s0.1,1.2,0.4,1.7H57c0.3-0.5,0.4-1.1,0.4-1.7
	S57.3,68,57,67.4z M60.1,69.1c0-0.9,0.8-1.7,1.7-1.7s1.7,0.8,1.7,1.7s-0.8,1.7-1.7,1.7S60.1,70.1,60.1,69.1z M65.1,67.4h1.5
	c-0.1,0.5-0.2,1.1-0.2,1.7c0,0.6,0.1,1.1,0.2,1.6h-1.5c0.3-0.5,0.4-1.1,0.4-1.7S65.4,68,65.1,67.4z M67.5,65.4H39.8
	c-0.2-0.3-0.5-0.7-0.8-1h5.6h18.4h5.4C68,64.7,67.8,65,67.5,65.4z M73.2,73.9c-2.6,0-4.7-2.1-4.7-4.7c0-2.6,2.1-4.7,4.7-4.7
	s4.7,2.1,4.7,4.7C77.9,71.8,75.8,73.9,73.2,73.9z"/>
<path d="M57.7,46.5H66v-5.8h-8.3V46.5z M59.7,42.8h4.2v1.7h-4.2V42.8z"/>
<path d="M66,20.3H51.8L40.5,39.4H66V20.3z M55.8,37.4H44.1l8.8-15h2.8L55.8,37.4L55.8,37.4z M63.9,37.4h-6.1v-15h6.1V37.4z"/>
</svg>
