<svg xmlns="http://www.w3.org/2000/svg" viewBox="0 0 24 24"><path d="M24 5.4L24 5.4c-0.1-0.5-0.6-0.9-1.1-0.9H1.1C0.5 4.5 0 5 0 5.6v12.8c0 0.6 0.5 1.1 1.1 1.1h21.8c0.6 0 1.1-0.5 1.1-1.1V5.6L24 5.4zM9.2 12.3l-8.5 6v-12C2.1 7.1 5.9 9.9 9.2 12.3zM9.8 12.8c0.7 0.5 1.3 1 1.9 1.4l0.2 0.2 0.2-0.2c0.6-0.4 1.2-0.9 1.9-1.4l8.5 6H1.4L9.8 12.8zM14.8 12.3c3.3-2.5 7.1-5.2 8.5-6.1v12.1L14.8 12.3zM1.1 5.3h21.8c0.1 0 0.2 0.1 0.3 0.2 -0.9 0.5-3.5 2.3-11.2 8 -0.7-0.5-3.1-2.3-5.5-4 -3.6-2.6-5-3.6-5.7-4C0.9 5.3 1 5.3 1.1 5.3z"/></svg>
