<?xml version="1.0" encoding="utf-8"?>
<!-- Generator: Adobe Illustrator 22.1.0, SVG Export Plug-In . SVG Version: 6.00 Build 0)  -->
<svg version="1.1" id="Слой_1" xmlns="http://www.w3.org/2000/svg" xmlns:xlink="http://www.w3.org/1999/xlink" x="0px" y="0px"
	 viewBox="0 0 80 80" style="enable-background:new 0 0 80 80;" xml:space="preserve">
<path d="M56.5,24.2V7.5c0-4.1-3.4-7.5-7.5-7.5s-7.5,3.4-7.5,7.5v25.4h-2v2.1h2h1.6v3.9h3.2v29.6h-1.6V80h8.5V68.4h-1.5V38.8H55v-3.9
	h1.6h1.9v-2.1h-1.9v-6.6h-2.1v3.2h-2.4V3c1.4,1,2.4,2.6,2.4,4.4v16.7L56.5,24.2L56.5,24.2z M49.7,65.4h-1.2v-0.8h1.2V65.4z
	 M51.1,77.9h-4.2v-7.4h1.6v-3h1.2v2.9h1.5L51.1,77.9L51.1,77.9z M49.7,62.6h-1.2V38.8h1.2V62.6z M52.8,36.7h-1.1h-5.4h-1.1v-1.8h7.6
	L52.8,36.7L52.8,36.7z M54.4,32.8H43.7v-1.3h10.7V32.8z M49.9,29.4h-1.8V14.1H46v15.3h-2.3V7.5c0-1.8,0.9-3.4,2.3-4.4v8.4h2.1V2.2
	c0.3-0.1,0.6-0.1,1-0.1c0.3,0,0.6,0,0.9,0.1V29.4z"/>
<path d="M22.9,55.7v16.7c0,4.1,3.4,7.5,7.5,7.5s7.5-3.4,7.5-7.5V47.1h2V45h-2h-1.6v-3.9h-3V10.8l1.5-3.1L33,0h-5l-1.9,7.7l1.7,3.1
	v30.3h-3.4V45h-1.6H21v2.1h1.9v6.6H25v-3.2h2.4v26.4c-1.4-1-2.4-2.6-2.4-4.4V55.8L22.9,55.7L22.9,55.7z M29.9,14.6h1.2v0.8h-1.2
	V14.6z M29.6,2.1h1.6l1.2,5.3l-1.4,2.9v2.1h-1.2v-2.2l-1.6-2.9L29.6,2.1z M29.9,17.4h1.2v23.6h-1.2V17.4z M26.5,43.2h1.2v0.1h5.4
	v-0.1h0.9V45h-7.6V43.2z M25,47.1h10.7v1.3H25V47.1z M29.5,50.5h1.8v15.3h2.1V50.5h2.3v21.9c0,1.8-0.9,3.4-2.3,4.4v-8.4h-2.1v9.3
	c-0.3,0.1-0.6,0.1-1,0.1c-0.3,0-0.6,0-0.9-0.1V50.5z"/>
</svg>
