<svg xmlns="http://www.w3.org/2000/svg" viewBox="0 0 24 24"><path d="M10 18c-0.7 0-1.2 0.5-1.2 1.2 0 0.7 0.5 1.2 1.2 1.2 0.7 0 1.2-0.5 1.2-1.2C11.2 18.6 10.7 18 10 18zM10 19.6c-0.2 0-0.4-0.2-0.4-0.4 0-0.2 0.2-0.4 0.4-0.4 0.2 0 0.4 0.2 0.4 0.4C10.4 19.5 10.2 19.6 10 19.6z"/><path d="M19.6 18c-0.7 0-1.2 0.5-1.2 1.2 0 0.7 0.5 1.2 1.2 1.2 0.7 0 1.2-0.5 1.2-1.2C20.8 18.6 20.3 18 19.6 18zM19.6 19.6c-0.2 0-0.4-0.2-0.4-0.4 0-0.2 0.2-0.4 0.4-0.4S20 19 20 19.3C20 19.5 19.8 19.6 19.6 19.6z"/><path d="M0.4 20.4H6v1.2C6 21.8 6.2 22 6.4 22H8c0.2 0 0.4-0.2 0.4-0.4v-0.1c0.6 0.4 1.4 0.6 2.1 0.5 0.7-0.1 1.4-0.5 1.8-1.1h5c0.5 0.8 1.4 1.2 2.3 1.2s1.8-0.5 2.3-1.2h1.7c0.2 0 0.4-0.2 0.4-0.4V14c0-1.1-0.9-2-2-2h-0.8V5.5c0-0.6-0.6-1.1-1.2-1.1h-5.4c-0.8 0-1.4 0.4-1.8 1.1l-3.6 6.7c0 0.1 0 0.1 0 0.2v3.2H8.5V2.8c0-0.6-0.6-1.2-1.3-1.2S6 2.1 6 2.8v0.8H1.6C1.4 3.6 1.2 3.8 1.2 4v9.2H0.8c-0.2 0-0.4 0.2-0.4 0.4V18C0.2 18 0 18.2 0 18.4V20C0 20.3 0.2 20.4 0.4 20.4zM0.8 19.6v-0.8H6v0.8L0.8 19.6 0.8 19.6zM10 21.2c-1.1 0-2-0.9-2-2 0-1.1 0.9-2 2-2s2 0.9 2 2C12 20.3 11.1 21.2 10 21.2zM12.7 20c0.2-0.7 0.1-1.4-0.1-2h4.6c-0.3 0.6-0.4 1.3-0.1 2H12.7zM19.6 21.2c-1.1 0-2-0.9-2-2 0-1.1 0.9-2 2-2 1.1 0 2 0.9 2 2C21.6 20.3 20.7 21.2 19.6 21.2zM16 15.6v-0.8h2.8v0.8H16zM10 12.8h2.8v0.9L11.9 14c-0.2 0.1-0.3 0.2-0.3 0.4v1.2H10L10 12.8 10 12.8zM12.4 14.7l0.9-0.3c0.2-0.1 0.3-0.2 0.3-0.4v-1.3l1-0.9 0.6 0.6c0.1 0.1 0.4 0.1 0.6 0 0.2-0.1 0.1-0.4 0-0.6l-1.7-1.7c-0.1-0.1-0.4-0.1-0.6 0 -0.1 0.1-0.1 0.4 0 0.6l0.5 0.5L13.2 12h-2.9L13 6.8h5.8v2.1c-0.1 0-0.3-0.1-0.4-0.1 -0.7 0-1.2 0.5-1.2 1.2v2.4h-0.8c-0.7 0-1.2 0.5-1.2 1.2v2h-2.8L12.4 14.7 12.4 14.7zM18.8 14H16v-0.4c0-0.2 0.2-0.4 0.4-0.4h1.2c0.2 0 0.4-0.2 0.4-0.4V10c0-0.2 0.2-0.4 0.4-0.4s0.4 0.2 0.4 0.4C18.8 10 18.8 14 18.8 14zM19.6 6.8h0.8v8.8h-0.8L19.6 6.8 19.6 6.8zM23.2 20h-0.9c0.4-1.1-0.1-2.4-1.1-3.1v-0.5h2V20zM22 12.8c0.7 0 1.2 0.5 1.2 1.2v1.6h-2v-2.8H22zM19.2 5.2H20c0.2 0 0.4 0.2 0.4 0.4V6h-7l0.1-0.1c0.2-0.4 0.6-0.7 1.1-0.7L19.2 5.2 19.2 5.2zM9.6 16.4h10.8v0.1c-1-0.3-2 0-2.8 0.7H12c-1-0.9-2.5-1.1-3.6-0.3v-0.5H9.6zM6.8 2.8c0-0.2 0.2-0.4 0.4-0.4 0.2 0 0.4 0.2 0.4 0.4v15c-0.5 0.9-0.5 2 0 2.9v0.6H6.8V2.8zM3.6 4.4h0.8v0.8H3.6V4.4zM2.8 4.4v1.2C2.8 5.8 3 6 3.2 6h1.6C5 6 5.2 5.8 5.2 5.6V4.4H6v4H2v-4H2.8zM3.6 9.2h0.8V10H3.6V9.2zM2 9.2h0.8v1.2c0 0.2 0.2 0.4 0.4 0.4h1.6c0.2 0 0.4-0.2 0.4-0.4V9.2H6v4H2V9.2zM3.2 14H4v0.8H3.2V14zM1.2 14h1.2v1.2c0 0.2 0.2 0.4 0.4 0.4h1.6c0.2 0 0.4-0.2 0.4-0.4V14H6v4H1.2V14z"/></svg>
