<svg xmlns="http://www.w3.org/2000/svg" viewBox="0 0 24 24"><path d="M5.1 15.3c-2 0-3.6 1.6-3.6 3.6 0 2 1.6 3.6 3.6 3.6s3.6-1.6 3.6-3.6S7.1 15.3 5.1 15.3zM5.1 21.6c-1.5 0-2.6-1.2-2.6-2.6 0-1.5 1.2-2.6 2.6-2.6s2.6 1.2 2.6 2.6C7.8 20.4 6.5 21.6 5.1 21.6z"/><path d="M5.1 17.6c-0.7 0-1.3 0.6-1.3 1.3 0 0.7 0.6 1.3 1.3 1.3s1.3-0.6 1.3-1.3C6.4 18.2 5.8 17.6 5.1 17.6zM5.1 19.2c-0.2 0-0.3-0.1-0.3-0.3 0-0.2 0.1-0.3 0.3-0.3 0.2 0 0.3 0.1 0.3 0.3C5.4 19.1 5.3 19.2 5.1 19.2z"/><path d="M8 6c1 0 1.9-0.8 1.9-1.9S9.1 2.3 8 2.3 6.2 3.1 6.2 4.1 7 6 8 6zM8 3.3c0.5 0 0.9 0.4 0.9 0.9S8.5 5 8 5C7.6 5 7.2 4.6 7.2 4.1S7.5 3.3 8 3.3z"/><circle cx="20.8" cy="10.5" r="0.8"/><path d="M22.4 13.2c0.9-0.6 1.5-1.6 1.5-2.7s-0.6-2.1-1.5-2.7L10.1 0.6l0 0C9.5 0.2 8.8 0 8 0 6.3 0 4.7 1.2 4.1 2.8c0 0.1-4 14.8-4 15l0 0 0 0C0.1 18.1 0 18.5 0 18.9 0 21.7 2.3 24 5.1 24c1 0 1.9-0.3 2.6-0.8C7.8 23.2 22.4 13.3 22.4 13.2zM20.1 13.6L9.9 20.6c0.2-0.5 0.3-1.1 0.3-1.6 0-2.8-2.3-5.1-5.1-5.1 -1.2 0-2.3 0.4-3.1 1.1l2.4-9C5 7.3 6.4 8.3 8 8.3c2.3 0 4.1-1.8 4.1-4.1 0-0.5-0.1-0.9-0.2-1.3l8 4.6c-1.3 0.4-2.3 1.6-2.3 3.1C17.6 12.1 18.7 13.3 20.1 13.6zM20.8 12.7c-1.2 0-2.2-1-2.2-2.2s1-2.2 2.2-2.2 2.2 1 2.2 2.2S22 12.7 20.8 12.7zM8 1c1.7 0 3.1 1.4 3.1 3.1S9.8 7.3 8 7.3 4.9 5.9 4.9 4.1 6.3 1 8 1zM1 18.9c0-2.3 1.8-4.1 4.1-4.1s4.1 1.8 4.1 4.1S7.4 23 5.1 23 1 21.2 1 18.9z"/></svg>
