<?xml version="1.0" encoding="utf-8"?>
<!-- Generator: Adobe Illustrator 22.1.0, SVG Export Plug-In . SVG Version: 6.00 Build 0)  -->
<svg version="1.1" id="Слой_1" xmlns="http://www.w3.org/2000/svg" xmlns:xlink="http://www.w3.org/1999/xlink" x="0px" y="0px"
	 viewBox="0 0 24 24" style="enable-background:new 0 0 24 24;" xml:space="preserve">
<g>
	<path d="M12.3,0C7.7,0,4,3.7,4,8.2C4,13.4,10,24,12.3,24c2.2,0,8.3-10.8,8.3-15.8C20.5,3.7,16.8,0,12.3,0z M12.3,23.3
		c-1.4,0-7.5-9.9-7.5-15c0-4.1,3.4-7.5,7.5-7.5c4.1,0,7.5,3.3,7.5,7.5C19.8,13.4,13.7,23.3,12.3,23.3z"/>
	<path d="M12.3,4.5c-1.9,0-3.4,1.5-3.4,3.4s1.5,3.4,3.4,3.4s3.4-1.5,3.4-3.4S14.1,4.5,12.3,4.5z M12.3,10.5c-1.4,0-2.6-1.2-2.6-2.6
		s1.2-2.6,2.6-2.6s2.6,1.2,2.6,2.6S13.7,10.5,12.3,10.5z"/>
</g>
</svg>
