<?xml version="1.0" encoding="utf-8"?>
<!-- Generator: Adobe Illustrator 22.1.0, SVG Export Plug-In . SVG Version: 6.00 Build 0)  -->
<svg version="1.1" id="Слой_1" xmlns="http://www.w3.org/2000/svg" xmlns:xlink="http://www.w3.org/1999/xlink" x="0px" y="0px"
	 viewBox="0 0 80 80" style="enable-background:new 0 0 80 80;" xml:space="preserve">
<path d="M54.9,0h-0.2c-2.8,0-5.1,2.3-5.1,5.1V53c0,3.1-1.1,6.1-3.1,8.6c-1.6,2-2.5,4.5-2.5,7.1C44,74.9,49,80,55.3,80h1.6l-4.1-8.4
	l0.8-2.8h4l3.4,8l1-0.8c0.2-0.1,1.5-1.2,2.4-3.9c0.1-0.1,0.1-0.3,0.1-0.4c1.4-4.3,0.4-9.2-2.5-12.8c-1-1.2-1.7-2.6-2-4
	C60,54.1,60,53.3,60,52.4V5.1C59.9,2.3,57.7,0,54.9,0z M51.6,15.6h2.2V48h2V15.6h2.1v36.8c0,0.6,0,1.1,0.1,1.7h-6.4
	c0-0.4,0.1-0.7,0.1-1.1V15.6z M57.9,13.6h-6.3v-0.7h6.3V13.6z M54.7,2h0.2c1.7,0,3,1.4,3,3v5.7h-6.3V5.1C51.6,3.4,53,2,54.7,2z
	 M60.6,60.2c2.5,3,3.4,7.2,2.2,10.8c0,0.1-0.1,0.2-0.1,0.3c-0.3,0.8-0.6,1.4-0.9,1.9L59,66.8h-6.8l-1.5,5l2.9,6
	C49.3,77,46,73.2,46,68.7c0-2.1,0.7-4.2,2.1-5.8c1.6-2,2.7-4.3,3.2-6.7h7.1C58.8,57.6,59.6,59,60.6,60.2z"/>
<path d="M54.8,7.8c1.5,0,2.7-1.2,2.7-2.7s-1.2-2.7-2.7-2.7s-2.7,1.2-2.7,2.7C52.1,6.6,53.3,7.8,54.8,7.8z M54.8,4.4
	c0.4,0,0.7,0.3,0.7,0.7c0,0.4-0.3,0.7-0.7,0.7c-0.4,0-0.7-0.3-0.7-0.7C54.2,4.7,54.5,4.4,54.8,4.4z"/>
<rect x="53.8" y="50" width="2" height="3.3"/>
<path d="M29.4,72.2c-1.5,0-2.7,1.2-2.7,2.7c0,1.5,1.2,2.7,2.7,2.7c1.5,0,2.7-1.2,2.7-2.7C32.1,73.4,30.9,72.2,29.4,72.2z M29.4,75.6
	c-0.4,0-0.7-0.3-0.7-0.7c0-0.4,0.3-0.7,0.7-0.7s0.7,0.3,0.7,0.7C30.1,75.3,29.8,75.6,29.4,75.6z"/>
<path d="M38.6,17.2c1.1-1.8,1.7-3.8,1.7-5.9C40.2,5.1,35.2,0,28.9,0h-1.6l4.1,8.4l-0.8,2.8h-4l-3.4-8l-1,0.8
	c-0.2,0.1-3.4,2.8-3.5,10.3H16V19l0.9,0.5c0.7,0.4,1.4,0.9,2.1,1.4c0.2,0.1,0.3,0.3,0.5,0.4c3.1,2.8,4.8,6.7,4.8,10.8v42.7
	c0,2.8,2.3,5.1,5.1,5.1h0.2c2.8,0,5.1-2.3,5.1-5.1V33.8l0,0v-2.3C34.6,26.4,36,21.4,38.6,17.2z M22.5,6.7l2.2,5.2l-2.9,2.4h-1.1
	C20.7,10.4,21.7,8,22.5,6.7z M20.8,19.9c-0.2-0.2-0.3-0.3-0.5-0.4c-0.7-0.6-1.4-1.1-2.2-1.6v-1.6h4.4l3.8-3.1h5.8l1.5-5l-2.9-6
	c4.3,0.8,7.6,4.6,7.6,9.1c0,1.7-0.5,3.4-1.4,4.8c-2.8,4.6-4.3,9.9-4.3,15.4v2.3l0,0v30.6h-2.1V32h-2v32.3h-2.1V32.2
	C26.3,27.5,24.3,23,20.8,19.9z M26.3,66.4h6.3v0.7h-6.3V66.4z M29.5,78h-0.2c-1.7,0-3-1.4-3-3v-5.7h6.3v5.7
	C32.6,76.6,31.2,78,29.5,78z"/>
<path d="M32.5,15.5h-8.2v5.9h8.2V15.5z M26.3,17.5h1.1v1.8h-1.1V17.5z M30.5,19.3h-1.1v-1.8h1.1V19.3z"/>
<rect x="28.4" y="26.7" width="2" height="3.3"/>
</svg>
