<?xml version="1.0" encoding="utf-8"?>
<!-- Generator: Adobe Illustrator 22.1.0, SVG Export Plug-In . SVG Version: 6.00 Build 0)  -->
<svg version="1.1" id="Слой_1" xmlns="http://www.w3.org/2000/svg" xmlns:xlink="http://www.w3.org/1999/xlink" x="0px" y="0px"
	 viewBox="0 0 24 24" style="enable-background:new 0 0 24 24;" xml:space="preserve">
<g>
	<path d="M21,5l-4.7-4.7C16.1,0.1,16,0,15.7,0h-12C3.4,0,3,0.4,3,0.8v22.4C3,23.6,3.4,24,3.8,24h16.7c0.4,0,0.8-0.4,0.8-0.8V5.5
		C21.3,5.3,21.2,5.1,21,5z M20.8,23.2c0,0.2-0.1,0.3-0.3,0.3H3.8c-0.2,0-0.3-0.1-0.3-0.3V0.8c0-0.2,0.1-0.3,0.3-0.3h12
		c0.1,0,0.2,0,0.2,0.1l4.7,4.7c0.1,0.1,0.1,0.1,0.1,0.2V23.2z"/>
	<path d="M18.2,16.5c-0.2-0.2-0.4-0.3-0.7-0.4c-1.2-0.3-2.3-0.4-3.3-0.4c-1.1-0.9-1.8-1.9-2.3-2.7c0.8-2.2,0.7-3.1,0.7-3.2
		c-0.2-1.5-1.2-1.6-1.3-1.6c-0.3,0-0.9,0-1.2,1c-0.1,0.4-0.2,0.8-0.1,1.2c0.1,0.5,0.3,1.5,0.9,2.7c-0.4,1-0.9,2.2-1.8,3.7
		c-1.6,0.6-2.6,1.4-3,1.7c-0.2,0.2-0.4,0.5-0.5,0.7c-0.1,0.3-0.1,0.8,0.4,1.4C6.4,20.8,6.7,21,7.1,21c0.1,0,0.3,0,0.4-0.1h0
		c0.2-0.1,0.4-0.2,0.6-0.5c0.7-1.1,1.3-2.1,1.8-3c1.1-0.4,2.5-0.8,4.1-0.9c0.8,0.6,1.7,1.3,2.8,1.9c0.5,0.3,1.1,0.1,1.4-0.3
		c0.2-0.2,0.2-0.4,0.2-0.4c0,0,0,0,0,0C18.6,17.3,18.5,16.9,18.2,16.5z M7.3,20c0,0.1-0.1,0.1-0.1,0.1h0c-0.2,0.1-0.3-0.1-0.3-0.1
		c-0.2-0.2-0.3-0.4-0.2-0.6c0-0.1,0.1-0.2,0.2-0.3C7,19,7.7,18.5,8.5,18.1C8.2,18.7,7.8,19.3,7.3,20z M10.9,10.2
		c0-0.3,0-0.6,0.1-0.8c0.1-0.2,0.2-0.4,0.3-0.4c0,0,0,0,0,0c0,0,0.4,0.1,0.5,0.9c0,0,0.1,0.6-0.4,2C11.1,11.2,11,10.6,10.9,10.2z
		 M10.5,16.4c0.5-0.9,0.8-1.6,1.1-2.3c0.4,0.6,0.9,1.2,1.5,1.8C12.1,15.9,11.3,16.1,10.5,16.4z M17.6,17.4c0,0,0,0.1-0.1,0.2
		c-0.1,0.1-0.2,0.1-0.4,0.1c-0.7-0.3-1.2-0.7-1.8-1.1c0.6,0.1,1.3,0.2,1.9,0.3c0.1,0,0.2,0.1,0.3,0.1C17.7,17.2,17.7,17.3,17.6,17.4
		z"/>
</g>
</svg>
