<svg xmlns="http://www.w3.org/2000/svg" viewBox="0 0 24 24"><path d="M23.7 3c-0.1-0.2-0.2-0.3-0.4-0.4 -0.2 0-0.4 0-0.5 0.2l-1.5 1.5 -1.6-1.7 1.5-1.5c0.1-0.1 0.2-0.3 0.1-0.5 0-0.2-0.2-0.4-0.4-0.4 -1.6-0.6-3.4-0.1-4.7 1.1 -0.6 0.7-1.1 1.5-1.3 2.5l-2.5-1 -1.1 1.3C10.7 4 10 4 9.2 4.2L8 3 4.6 4.4l0.1 1.8C4.1 6.7 3.5 7.3 3.1 7.9L1.4 7.8 0 11.2l1.3 1.1c-0.1 0.8-0.1 1.6 0.1 2.4l-1.3 1.2 1.5 3.4 1.7-0.1c0.5 0.6 1.1 1.2 1.8 1.6L5 22.5l3.4 1.3 1.1-1.3c0.8 0.1 1.6 0.1 2.4-0.1l1.2 1.2 3.4-1.5 -0.1-1.8c0.6-0.5 1.2-1.1 1.6-1.7l1.7 0.1 1.3-3.4 -1.3-1c0.1-0.8 0.1-1.6-0.1-2.4l1.3-1.2L20.2 9c1-0.1 1.9-0.6 2.5-1.3C23.9 6.4 24.3 4.6 23.7 3zM19.8 15.8l-0.8 2h-1.5L17.3 18c-0.5 0.7-1.1 1.4-1.8 1.9l-0.3 0.2 0.1 1.5 -2 0.9 -1.1-1.1L12 21.4c-0.9 0.2-1.8 0.2-2.6 0.1H9.1l-1 1.1 -2-0.8v-1.6l-0.2-0.2C5.2 19.6 4.5 19 4 18.3L3.8 18l-1.5 0.1 -0.9-2 1.1-1.1 -0.1-0.3c-0.1-0.9-0.1-1.8-0.1-2.7v-0.3l-1.1-1 0.8-2h1.5l0.2-0.3c0.5-0.7 1.1-1.4 1.8-1.9l0.3-0.2L5.7 5l2-0.9 1.1 1.1L9 5.2c0.9-0.1 1.8-0.1 2.6-0.1h0.3l1-1.1L15 4.8c0 0.3 0 0.5 0.1 0.7l-1.9 1.9c-0.9-0.4-1.8-0.6-2.8-0.6C6.9 6.8 4 9.6 4 13.2c0 3.5 2.8 6.4 6.4 6.4 3.5 0 6.4-2.8 6.4-6.3 0-0.9-0.2-1.8-0.5-2.5l1.9-2L19 9l0.6 1.5 -1.1 1.1 0.1 0.3c0.2 0.9 0.2 1.8 0.1 2.7l-0.1 0.3L19.8 15.8zM14.4 12.7l1.1-1.1c0.2 0.6 0.3 1.1 0.3 1.8 0 2.9-2.4 5.4-5.3 5.4 -2.9 0-5.4-2.4-5.4-5.3 0-2.9 2.4-5.4 5.3-5.4 0.7 0 1.4 0.1 2 0.4l-1.2 1.2C10 9.3 8.7 9.8 7.8 10.7c-1.5 1.5-1.5 4 0 5.6 0.8 0.7 1.7 1.1 2.8 1.1 2.1 0 3.9-1.7 3.9-3.9C14.5 13.2 14.5 13 14.4 12.7zM18.4 7.7c-0.2-0.1-0.4 0-0.6 0.1l-4.3 4.3c-0.1 0.1-0.2 0.3-0.2 0.5 0.3 1 0 2-0.7 2.8 -1.1 1.1-2.9 1.1-4 0 -1.1-1.1-1.1-2.9 0-4 0.5-0.5 1.3-0.8 2-0.8l0.8 0.1c0.2 0.1 0.4 0 0.5-0.1l4.3-4.3c0.1-0.1 0.2-0.4 0.1-0.6C15.8 4.3 16.2 3 17 2c0.7-0.7 1.7-1.1 2.7-1l-1.3 1.2c-0.2 0.2-0.2 0.5 0 0.8l2.4 2.4c0.1 0.1 0.3 0.1 0.4 0.2 0.1 0 0.3-0.1 0.4-0.2l1.2-1.3c0.1 1-0.3 1.9-1 2.7C21 7.8 19.6 8.2 18.4 7.7z"/><path d="M11.8 12.2c-0.3-0.3-0.8-0.5-1.2-0.5 -0.5 0-0.9 0.2-1.2 0.5 -0.7 0.6-0.7 1.8 0 2.4 0 0 0 0 0 0 0.3 0.3 0.8 0.5 1.2 0.5 0.5 0 0.9-0.2 1.2-0.5C12.5 14 12.5 12.9 11.8 12.2L11.8 12.2zM11 13.8C11 13.8 11 13.9 11 13.8c-0.3 0.3-0.6 0.3-0.9 0l0 0c-0.3-0.2-0.3-0.6 0-0.9 0 0 0 0 0 0 0.1-0.1 0.3-0.2 0.5-0.2 0.2 0 0.3 0.1 0.4 0.2C11.2 13.2 11.3 13.6 11 13.8z"/></svg>
