<svg xmlns="http://www.w3.org/2000/svg" viewBox="0 0 60 22"><path d="M38.8 11.5c0 0.3 0.1 0.5 0.1 0.7 0.4 1.9 1.9 3.1 3.8 3.2 1.7 0.1 3-0.5 4-1.9 0.5-0.7 1.3-0.8 1.9-0.2 0.4 0.3 0.4 0.7 0.1 1.1 -0.2 0.2-0.3 0.4-0.5 0.6 -0.6 0.9-1.5 1.5-2.5 1.8 -1.7 0.6-3.4 0.7-5 0 -2.2-0.8-3.6-2.4-3.9-4.8 -0.2-1.4-0.1-2.9 0.6-4.2 0.9-1.9 2.4-3 4.5-3.3 1.4-0.2 2.7-0.1 4 0.5 1.8 0.9 2.9 2.3 3.3 4.3 0.1 0.5 0.2 1.1 0.2 1.6 0 0.3-0.1 0.5-0.5 0.5 -0.2 0-0.3 0-0.5 0 -3.1 0-6.2 0-9.3 0C39.1 11.5 39 11.5 38.8 11.5zM47.3 9.4C47 7.7 44.9 6.2 43 6.3c-2 0.1-4 1.7-4.1 3.1H47.3z"/><path d="M25 11.4c0 0.2 0 0.3 0.1 0.4 0.4 2.1 2.1 3.5 4.1 3.5 1.6 0 2.8-0.6 3.7-1.9 0.5-0.7 1.3-0.8 1.9-0.2 0.3 0.3 0.3 0.7 0.1 1 -0.1 0.2-0.2 0.3-0.4 0.5 -0.7 1-1.6 1.6-2.8 2 -1.7 0.6-3.4 0.6-5 0 -2.3-0.9-3.6-2.7-3.9-5.2 -0.1-1.2 0-2.4 0.5-3.4 0.9-2.1 2.5-3.4 4.8-3.7 1.2-0.2 2.4-0.1 3.6 0.4 2 0.8 3.2 2.4 3.7 4.5 0.1 0.5 0.1 1 0.2 1.5 0 0.4-0.1 0.5-0.5 0.5 -0.7 0-1.5 0-2.2 0 -2.5 0-4.9 0-7.4 0C25.3 11.4 25.2 11.4 25 11.4zM33.5 9.4c-0.3-1.7-2.3-3.2-4.3-3.1 -1.9 0-3.9 1.6-4.1 3.1H33.5z"/><path d="M55.7 12.4c0.2 0.1 0.2 0.2 0.3 0.3 1.1 0.9 2.2 1.8 3.2 2.8 0.1 0.1 0.2 0.1 0.2 0.2 0.4 0.4 0.4 1 0.1 1.4 -0.4 0.4-0.9 0.5-1.3 0.1 -0.8-0.6-1.5-1.3-2.2-1.9 -1.1-0.9-2.1-1.8-3.2-2.7 -0.1-0.1-0.2-0.2-0.4-0.3 0 0.2 0 0.4 0 0.5v7.6 0.4c0 0.6-0.5 0.9-1 0.9 -0.5 0-0.9-0.4-0.9-1 0-0.1 0-0.2 0-0.4 0-5 0-10 0-15 0-0.2 0-0.3 0-0.5 0-0.4 0-0.4 0.4-0.4 0.5 0 0.9 0 1.4 0 1.1 0 2.2 0 3.3 0 1.9-0.1 3.9 1.4 4.1 3.6 0.2 2-1.1 3.8-3.2 4.2C56.4 12.3 56.1 12.3 55.7 12.4zM52.4 10.9c0.1 0 0.2 0 0.3 0h2.8c0.3 0 0.5 0 0.8-0.1 0.9-0.3 1.5-0.8 1.8-1.7 0.4-1.6-0.8-3-2.4-3 -0.9 0-1.9 0-2.9 0 -0.1 0-0.2 0-0.3 0L52.4 10.9z"/><path d="M19.7 11.5c-1.8 0-3.6 0-5.4 0 0 0.2 0 0.3 0 0.4v4.2c0 0.2 0 0.4 0 0.5 -0.1 0.4-0.6 0.7-1 0.7 -0.5 0-0.8-0.4-0.9-0.9 0-0.1 0-0.2 0-0.3 0-5 0-9.9 0-14.9 0-0.2 0-0.4 0.1-0.6C12.6 0.2 13 0 13.5 0c0.4 0.1 0.8 0.4 0.8 0.9 0 0.1 0 0.3 0 0.4V9c0 0.2 0 0.3 0 0.4 0.3 0.1 5.1 0.1 5.4 0 0-0.1 0-0.2 0-0.4 0-1.1 0-2.3 0-3.4 0-0.1 0-0.2 0-0.3 0-0.5 0.4-0.9 0.9-0.9s0.9 0.4 1 0.9c0 0.1 0 0.2 0 0.3v10.5 0.3c-0.1 0.5-0.5 0.9-1 0.9 -0.5 0-0.9-0.4-0.9-0.9 0-0.1 0-0.2 0-0.3 0-1.3 0-2.7 0-4.1C19.7 11.8 19.7 11.7 19.7 11.5z"/><path d="M5.7 17.3c-1.3 0-2.5-0.3-3.6-1 -0.5-0.3-0.9-0.6-1.3-1.1 -0.2-0.2-0.4-0.5-0.5-0.7 -0.2-0.4-0.1-0.8 0.2-1.1 0.4-0.4 0.9-0.5 1.4-0.2 0.2 0.2 0.5 0.4 0.7 0.6 0.2 0.2 0.4 0.4 0.6 0.6 0.6 0.6 1.3 0.9 2.2 1 0.8 0.1 1.5 0.1 2.3-0.2 0.3-0.1 0.6-0.3 0.9-0.5 0.6-0.5 0.7-1.3 0-1.8 -0.3-0.2-0.6-0.4-1-0.6 -0.9-0.4-1.8-0.6-2.7-0.9 -0.8-0.2-1.5-0.4-2.2-0.6 -0.3-0.1-0.6-0.2-0.8-0.4 -0.7-0.4-1.1-1-1.2-1.7C0.3 7.3 0.9 6.1 2.3 5.4c2.2-1.1 4.3-1.1 6.5 0.1C9.2 5.7 9.6 6 9.9 6.3c0.3 0.2 0.4 0.6 0.6 0.9 0.2 0.6-0.1 0.9-0.6 1C9.4 8.3 9 8.1 8.7 7.8 8.7 7.7 8.6 7.7 8.6 7.6 8.1 6.9 7.3 6.4 6.5 6.3 5.6 6.1 4.7 6.1 3.9 6.5 3.6 6.6 3.2 6.8 3 7 2.4 7.5 2.4 8.2 3 8.7 3.4 9 3.8 9.2 4.3 9.4c1.1 0.3 2.1 0.5 3.2 0.8 0.7 0.2 1.3 0.4 2 0.8 0.8 0.4 1.4 1 1.6 1.9 0.2 1.1 0 2.1-0.9 2.9 -1 0.9-2.1 1.4-3.4 1.5C6.4 17.3 6 17.3 5.7 17.3z"/></svg>
