<svg xmlns="http://www.w3.org/2000/svg" viewBox="0 0 24 24"><path d="M4.8 19.6c-0.7 0-1.2 0.5-1.2 1.2 0 0.7 0.5 1.2 1.2 1.2S6 21.4 6 20.8C6 20.1 5.5 19.6 4.8 19.6zM4.8 21.2c-0.2 0-0.4-0.2-0.4-0.4 0-0.2 0.2-0.4 0.4-0.4s0.4 0.2 0.4 0.4C5.2 21 5 21.2 4.8 21.2z"/><path d="M13.2 19.6c-0.7 0-1.2 0.5-1.2 1.2 0 0.7 0.5 1.2 1.2 1.2 0.7 0 1.2-0.5 1.2-1.2C14.4 20.1 13.9 19.6 13.2 19.6zM13.2 21.2c-0.2 0-0.4-0.2-0.4-0.4 0-0.2 0.2-0.4 0.4-0.4s0.4 0.2 0.4 0.4C13.6 21 13.4 21.2 13.2 21.2z"/><path d="M15.6 12.8c0.2 0 0.4-0.2 0.4-0.4S15.8 12 15.6 12h-0.4c-0.2 0-0.4 0.2-0.4 0.4s0.2 0.4 0.4 0.4H15.6L15.6 12.8z"/><path d="M22.6 15.6h0.6c0.4 0 0.8-0.4 0.8-0.8v-2c0-0.4-0.4-0.8-0.8-0.8h-0.6c-0.4 0-0.7 0.1-1 0.3V4c0-0.6-0.5-1.2-1.2-1.2h-2v-1c0-0.8-0.6-1.4-1.4-1.4 -0.8 0-1.4 0.6-1.4 1.4v1h-0.8c-0.7 0-1.4 0.5-1.5 1.2h-2c0-0.6-0.5-1.2-1.2-1.2H2.8c-1.1 0-2 0.9-2 2v5c-0.2 0-0.4 0.1-0.6 0.2S0 10.4 0 10.6v8.8c0 0.3 0.1 0.5 0.3 0.6l1.8 1.4c0.1 0.5 0.4 1 0.8 1.3H0.4c-0.2 0-0.4 0.2-0.4 0.4 0 0.2 0.2 0.4 0.4 0.4h23.2c0.2 0 0.3-0.1 0.4-0.3 0.1-0.1 0-0.3-0.1-0.4 0.1-0.1 0.1-0.3 0.1-0.5v-2c0-1.1-0.9-2-2-2h-0.4v-3.1C21.9 15.5 22.2 15.6 22.6 15.6zM22.6 12.8h0.6v2h-0.6c-0.5 0-1-0.4-1-1C21.6 13.2 22 12.8 22.6 12.8zM16.4 1.8c0-0.3 0.3-0.6 0.6-0.6 0.3 0 0.6 0.3 0.6 0.6v1h-1.2L16.4 1.8 16.4 1.8zM11.2 4.8h2v0.8h-2L11.2 4.8 11.2 4.8zM11.2 6.4h2v7l-2-0.9L11.2 6.4 11.2 6.4zM11.2 13.4l2 0.9v1.1l-2-0.9L11.2 13.4 11.2 13.4zM1.6 4.8c0-0.6 0.5-1.2 1.2-1.2H10c0.2 0 0.4 0.2 0.4 0.4v1.9L5.8 12l-4.2-1.9V4.8L1.6 4.8zM10.4 7.2v6.9l-3.9-1.8L10.4 7.2zM2.1 20.4l-1.2-1v-8.8l0.3 0.1 0 0 9.5 4.4 0 0 2.5 1.1V18c-1.5 0-2.8 1.3-2.8 2.8H7.6c0-1.5-1.1-2.7-2.6-2.8C3.6 17.9 2.3 18.9 2.1 20.4zM4.8 22.8c-1.1 0-2-0.9-2-2 0-1.1 0.9-2 2-2s2 0.9 2 2C6.8 21.9 5.9 22.8 4.8 22.8zM6.8 22.8c0.3-0.3 0.6-0.8 0.7-1.2h3c0.1 0.5 0.4 0.9 0.7 1.2H6.8zM13.2 22.8c-1.1 0-2-0.9-2-2 0-1.1 0.9-2 2-2s2 0.9 2 2C15.2 21.9 14.3 22.8 13.2 22.8zM15.2 22.8c0.3-0.3 0.6-0.8 0.7-1.2h0.9v0.8c0 0.1 0 0.3 0.1 0.4H15.2L15.2 22.8zM16.8 20.4v0.4H16c0-1.3-0.8-2.3-2-2.7V4.4c0-0.4 0.4-0.8 0.8-0.8h5.6c0.2 0 0.4 0.2 0.4 0.4v0.8h-4c-0.9 0-1.6 0.7-1.6 1.6v3.8c0 0.2 0.1 0.4 0.3 0.6l1.8 1.8c0.1 0.1 0.4 0.3 0.6 0.3h3v2l-1.3-1c-0.1-0.1-0.3-0.2-0.5-0.2h-3c-0.4 0-0.8 0.4-0.8 0.8V16c0 0.9 0.7 1.6 1.6 1.6h4v0.8h-2C17.7 18.4 16.8 19.3 16.8 20.4zM20.8 5.6V12h-3L16 10.2V6.4c0-0.4 0.4-0.8 0.8-0.8L20.8 5.6 20.8 5.6zM20.8 15.8v1h-4c-0.4 0-0.8-0.4-0.8-0.8v-1.6h3L20.8 15.8zM18.4 22.8H18c-0.2 0-0.4-0.2-0.4-0.4v-0.8h0.8C18.4 21.6 18.4 22.8 18.4 22.8zM20 22.8h-0.8v-1.2H20V22.8zM21.6 22.8h-0.8v-1.2h0.4 0.4L21.6 22.8 21.6 22.8zM23.2 22.4c0 0.2-0.2 0.4-0.4 0.4h-0.4v-1.2h0.8V22.4L23.2 22.4zM22 19.2c0.6 0 1.2 0.5 1.2 1.2v0.4h-5.6v-0.4c0-0.6 0.5-1.2 1.2-1.2H22z"/><path d="M1.9 12.7l2.4 1.2c0.2 0.1 0.4 0 0.5-0.2s0-0.4-0.2-0.5L2.2 12c-0.1-0.1-0.3-0.1-0.4 0 -0.1 0.1-0.2 0.2-0.2 0.4C1.6 12.6 1.7 12.7 1.9 12.7z"/><path d="M1.9 14.3l2.4 1.2c0.2 0.1 0.4 0 0.5-0.2s0-0.4-0.2-0.5l-2.4-1.2c-0.1-0.1-0.3-0.1-0.4 0 -0.1 0.1-0.2 0.2-0.2 0.4S1.7 14.3 1.9 14.3z"/><path d="M4.8 17c0.1-0.2 0-0.4-0.2-0.5l-2.4-1.2c-0.1-0.1-0.3-0.1-0.4 0 -0.1 0.1-0.2 0.2-0.2 0.4 0 0.1 0.1 0.3 0.2 0.3l2.4 1.2C4.4 17.2 4.7 17.1 4.8 17z"/><path d="M17.2 7.2H18c0.2 0 0.4-0.2 0.4-0.4S18.2 6.4 18 6.4h-0.8c-0.2 0-0.4 0.2-0.4 0.4S17 7.2 17.2 7.2z"/><path d="M19.6 7.2c0.1 0 0.2 0 0.3-0.1C20 7 20 6.9 20 6.8c0 0 0 0 0-0.1s0 0 0-0.1c0 0 0 0 0-0.1 0 0 0 0 0-0.1 -0.1-0.1-0.2-0.1-0.4-0.1 0 0 0 0-0.1 0 0 0 0 0-0.1 0s0 0-0.1 0c0 0 0 0 0 0.1s0 0 0 0.1 0 0 0 0.1c0 0 0 0 0 0.1 0 0.1 0 0.2 0.1 0.3C19.4 7.2 19.5 7.2 19.6 7.2z"/></svg>
