<svg xmlns="http://www.w3.org/2000/svg" viewBox="0 0 24 24"><path d="M19.3 24c-1 0-2.2-0.3-3.5-0.7 -2.9-1.1-6.1-3.3-8.9-6.1 -2.8-2.8-5-6-6.1-8.9 -1-2.6-1-4.8 0-5.8C0.9 2.3 1 2.1 1.2 2c0.9-1 2-2 3.3-2 0.9 0 1.8 0.6 2.8 1.8 2.7 3.4 1.5 4.6 0.1 6L7.1 8.1c-0.2 0.2-0.7 1.3 3.4 5.4 1.3 1.3 2.5 2.3 3.4 2.9 0.6 0.4 1.6 0.9 2 0.5l0.3-0.3c1.4-1.4 2.6-2.7 6 0.1 1.2 0.9 1.7 1.8 1.8 2.8 0.1 1.4-1 2.4-2 3.3 -0.2 0.1-0.3 0.3-0.5 0.4C21.1 23.7 20.3 24 19.3 24zM4.4 0.8c-1 0-1.8 0.9-2.6 1.7C1.6 2.7 1.5 2.9 1.3 3 0.6 3.7 0.6 5.7 1.5 8c1.1 2.8 3.2 5.9 5.9 8.6s5.8 4.9 8.6 5.9c2.3 0.9 4.2 0.9 5 0.2 0.1-0.1 0.3-0.3 0.5-0.5 0.8-0.8 1.8-1.7 1.7-2.7 0-0.7-0.5-1.4-1.5-2.2 -2.8-2.3-3.6-1.5-5-0.1l-0.3 0.3c-0.6 0.6-1.6 0.5-3-0.4 -1-0.6-2.2-1.6-3.5-3l0 0c-3.4-3.4-4.5-5.5-3.4-6.6l0.3-0.3c1.3-1.3 2.1-2.1-0.1-5C5.8 1.3 5.1 0.8 4.4 0.8 4.4 0.8 4.4 0.8 4.4 0.8z"/><path d="M19.4 9.9c-0.1 0-0.1 0-0.2 0 -0.2-0.1-0.3-0.3-0.2-0.5 0.5-1.3 0.2-2.7-0.7-3.7 -1-1-2.5-1.3-3.8-0.7 -0.2 0.1-0.4 0-0.5-0.2 -0.1-0.2 0-0.4 0.2-0.5 1.6-0.7 3.5-0.4 4.7 0.9 1.2 1.2 1.6 3 0.9 4.5C19.7 9.8 19.6 9.9 19.4 9.9z"/><path d="M23 11.4c-0.1 0-0.1 0-0.2 0 -0.2-0.1-0.3-0.3-0.2-0.5 1.1-2.7 0.5-5.8-1.6-7.9 -2.1-2.1-5.4-2.7-8.1-1.5 -0.2 0.1-0.4 0-0.5-0.2 -0.1-0.2 0-0.4 0.2-0.5 3-1.4 6.7-0.7 9.1 1.7 2.3 2.3 3 5.7 1.8 8.8C23.3 11.3 23.2 11.4 23 11.4z"/></svg>
