<svg xmlns="http://www.w3.org/2000/svg" viewBox="0 0 24 24"><path d="M20.6 3H18l0-0.1L18 2.7c-0.9-1.5-1.5-2.3-2-2.4 -0.2 0-1.8-0.4-4-0.4C9.9 0 8.3 0.3 8 0.4 7.6 0.4 6.9 1.2 6 2.7L6 2.9 6 3H3.4c-1 0-1.9 0.8-1.9 1.9v17.2c0 1 0.8 1.9 1.9 1.9h17.3c1 0 1.9-0.8 1.9-1.9V4.9C22.5 3.8 21.7 3 20.6 3zM17.2 3c-0.2 0.9-0.5 1.9-0.7 2.4L14.7 3l1.2-1.8C16.2 1.4 16.7 2.1 17.2 3zM12 0.8c1.3 0 2.5 0.1 3.1 0.2L14 2.7c-0.1-0.1-0.3-0.1-0.5-0.1h-3c-0.1 0-0.1 0-0.2 0L8.9 1C9.6 0.9 10.7 0.8 12 0.8zM13.4 4.9L13.4 4.9c0 0.1-0.1 0.2-0.1 0.2 -0.2-0.2-0.4-0.3-0.7-0.3h-1.1c-0.3 0-0.6 0.1-0.7 0.3 -0.1 0-0.2-0.1-0.2-0.2l-0.3-1.5c0-0.1 0.1-0.2 0.2-0.2h3c0.1 0 0.2 0.1 0.2 0.2L13.4 4.9zM9 17.1L8 16.7 9.7 11 9 17.1zM10.9 7.3c0.2 0.1 0.4 0.2 0.6 0.2h1.1c0.2 0 0.4-0.1 0.6-0.2l1.5 13.2c-0.3 0.3-1.5 1.1-2.6 1.8 -1.1-0.7-2.3-1.5-2.6-1.7L10.9 7.3zM11.3 6.6V5.7c0-0.1 0-0.1 0.2-0.1h1.1c0.2 0 0.2 0 0.2 0.1v0.9c0 0.1 0 0.1-0.2 0.1h-1.1C11.3 6.8 11.3 6.7 11.3 6.6zM8.1 1.2L9.6 3 7.5 5.4C7.3 5 7 3.9 6.8 3 7.3 2.1 7.8 1.3 8.1 1.2zM21.8 22.1c0 0.6-0.5 1.1-1.1 1.1H3.4c-0.6 0-1.1-0.5-1.1-1.1V4.9c0-0.6 0.5-1.1 1.1-1.1h2.8c0.6 2.6 1.1 2.6 1.3 2.6h0.2l2-2.3L9.8 5c0 0.4 0.3 0.7 0.7 0.9v0.6c-0.2 0.1-0.3 0.3-0.4 0.6l0 0L7 17.1l1.9 0.7 -0.3 2.7 0 0c0 0.2 0 0.6 3.2 2.4l0.2 0.1 0.2-0.1c3.2-1.9 3.2-2.2 3.2-2.4L13.9 7.2c0-0.3-0.2-0.5-0.4-0.7V5.8c0.4-0.1 0.7-0.4 0.7-0.8l0.2-1.1 1.9 2.5h0.2c0.2 0 0.7 0 1.3-2.6h2.8c0.6 0 1.1 0.5 1.1 1.1V22.1z"/></svg>
