<svg xmlns="http://www.w3.org/2000/svg" viewBox="0 0 24 24"><path d="M8 21.6c0 0.4-0.4 0.8-0.8 0.8 -0.4 0-0.8-0.4-0.8-0.8s0.4-0.8 0.8-0.8C7.6 20.8 8 21.2 8 21.6z"/><path d="M21.6 19.2h-2.8v-0.8h2.4c0.2 0 0.4-0.2 0.4-0.4v-3.2c0-0.1 0-0.2-0.1-0.3l-1.1-1.1v-0.6c0-0.7-0.5-1.2-1.2-1.2h-2.5l-0.4-1.5c-0.5-1.7-1.7-3.2-3.4-3.9L4.1 2.3C4 2.3 3.9 2.2 3.7 2.2l0-0.9c0-0.7-0.5-1.2-1.1-1.3C1.9-0.1 1.2 0.2 0.9 0.8L0.3 2C0.1 2.5 0 3 0 3.5c0 0.4 0 0.7 0.1 1.1l1.5 8.9 -0.1 0.1C0.5 14.3 0 15.3 0 16.5s0.7 2.1 1.6 2.7l0.5 0.3c0.1 0 0.1 0.1 0.2 0.1h2c0.1 0 0.3-0.1 0.4-0.2s0.1-0.3 0-0.4L4 17.9v-4.3c0-0.1 0-0.1 0-0.2L3.8 5.6l6.4 3.5c0.5 0.3 1 0.8 1.2 1.3H9.2c-0.1 0-0.3 0.1-0.3 0.2L7.3 13c0 0.1-0.1 0.1-0.1 0.2V18c0 0.2 0.2 0.4 0.4 0.4H10v0.8H7.2c-1.3 0-2.4 1.1-2.4 2.4 0 1.3 1.1 2.4 2.4 2.4h14.4c1.3 0 2.4-1.1 2.4-2.4S22.9 19.2 21.6 19.2zM10.4 20h9.4c-0.8 0.9-0.8 2.3 0 3.2H9c0.8-0.9 0.8-2.3 0-3.2H10.4zM19.6 12.8v0.4H16v-0.4c0-0.2 0.2-0.4 0.4-0.4h2.8C19.4 12.4 19.6 12.6 19.6 12.8zM2.9 13.2C2.9 13.2 3 13.2 2.9 13.2c0.1 0 0.1 0.1 0.1 0.1l0 0c0 0 0 0.1 0.1 0.1 0 0 0 0 0 0.1v0.1C3.1 13.8 3 14 2.8 14c-0.2 0-0.4-0.2-0.4-0.4 0-0.2 0.2-0.4 0.4-0.4C2.8 13.2 2.9 13.2 2.9 13.2zM2.5 18.8l-0.4-0.3c-0.7-0.4-1.2-1.2-1.2-2 -0.1-0.8 0.3-1.7 0.9-2.2 0 0 0.1 0.1 0.1 0.1 0.3 0.4 0.8 0.5 1.3 0.3V18c0 0.1 0 0.1 0.1 0.2l0.4 0.6H2.5zM3.2 12.5L3.2 12.5c-0.1 0-0.1 0-0.1 0 -0.1 0-0.1 0-0.2 0s-0.1 0-0.2 0c0 0 0 0-0.1 0 0 0-0.1 0-0.1 0s0 0-0.1 0 -0.1 0-0.1 0L0.9 4.4c0-0.3-0.1-0.7-0.1-1 0-0.4 0.1-0.8 0.3-1.1l0.6-1.2c0.1-0.2 0.3-0.3 0.4-0.3 0.2 0 0.4 0 0.5 0.1 0.1 0.1 0.2 0.3 0.2 0.4l0 1C2.4 2.6 2 3.1 2 3.7s0.3 1.1 0.8 1.4L3 5.2 3.2 12.5zM10.5 8.3l-7.3-4C2.9 4.2 2.7 3.7 2.9 3.4c0.2-0.4 0.6-0.5 0.9-0.4l8.8 3.8c1.5 0.6 2.5 1.9 2.9 3.4l0.4 1.4c-0.4 0.2-0.7 0.6-0.7 1.1v0.4h-0.8v-2.4c0-0.2-0.2-0.4-0.4-0.4h-1.8C11.9 9.5 11.3 8.8 10.5 8.3L10.5 8.3zM8 13.3l1.4-2.1h4.2v1.2h-0.8c-0.1 0-0.2 0-0.3 0.1l-2.4 2.4C10 15 10 15.1 10 15.2V16H8V13.3zM13.6 13.2V16h-2.8v-0.6l2.2-2.2H13.6zM8 16.8h6c0.2 0 0.4-0.2 0.4-0.4V14h5.4l1 1v2.6H8V16.8zM10.8 18.4H18v0.8h-7.2V18.4zM5.6 21.6c0-0.9 0.7-1.6 1.6-1.6s1.6 0.7 1.6 1.6 -0.7 1.6-1.6 1.6C6.3 23.2 5.6 22.5 5.6 21.6zM21.6 23.2c-0.9 0-1.6-0.7-1.6-1.6 0-0.9 0.7-1.6 1.6-1.6s1.6 0.7 1.6 1.6C23.2 22.5 22.5 23.2 21.6 23.2z"/><path d="M22.4 21.6c0 0.4-0.4 0.8-0.8 0.8 -0.4 0-0.8-0.4-0.8-0.8s0.4-0.8 0.8-0.8C22 20.8 22.4 21.2 22.4 21.6z"/><path d="M15.2 21.2H16V22h-0.8V21.2z"/><path d="M12.8 21.2h0.8V22h-0.8V21.2z"/><path d="M17.6 21.2h0.8V22h-0.8V21.2z"/><path d="M10.4 21.2h0.8V22h-0.8V21.2z"/><path d="M18.8 14.8h0.8V16h-0.8V14.8z"/><path d="M17.2 14.8H18V16h-0.8V14.8z"/></svg>
