<svg xmlns="http://www.w3.org/2000/svg" viewBox="0 0 24 24"><path d="M12 0C5.4 0 0 5.4 0 12s5.4 12 12 12 12-5.4 12-12S18.6 0 12 0zM12 23c-2.3 0-4.3-0.7-6.1-1.8h0l1-4.9c0.2-1.2 1.1-2.1 2.3-2.2 0.8 0.6 1.7 1 2.8 1 1 0 2-0.4 2.8-1 1.2 0 2.2 1 2.4 2.2l1 4.8C16.4 22.3 14.3 23 12 23zM8 9.5c0-2.2 1.8-4 4-4s4 1.8 4 4c0 2.3-2 4.5-4 4.5S8 11.8 8 9.5zM19.1 20.4l-0.9-4.3c-0.2-1.4-1.2-2.5-2.5-2.9 0.8-1 1.3-2.4 1.3-3.7 0-2.7-2.3-5-5-5s-5 2.3-5 5c0 1.3 0.6 2.7 1.4 3.7 -1.3 0.4-2.3 1.5-2.4 2.8L5 20.5c-2.5-2-4-5.1-4-8.5C1 5.9 5.9 1 12 1s11 4.9 11 11C23 15.4 21.5 18.4 19.1 20.4z"/></svg>
